<svg xmlns="http://www.w3.org/2000/svg" xmlns:xlink="http://www.w3.org/1999/xlink" width="1400" zoomAndPan="magnify" viewBox="0 0 1050 374.999991" height="500" preserveAspectRatio="xMidYMid meet" version="1.2"><defs/><g id="baa7577ef9"><g style="fill:#2c7a7b;fill-opacity:0.302;"><g transform="translate(30.182988, 182.615694)"><path style="stroke:none" d="M 85.359375 -122.703125 L 117.09375 -122.703125 C 118.375 -122.703125 119.484375 -122.234375 120.421875 -121.296875 C 121.359375 -120.359375 121.828125 -119.25 121.828125 -117.96875 L 121.828125 -4.734375 C 121.828125 -3.441406 121.359375 -2.328125 120.421875 -1.390625 C 119.484375 -0.460938 118.375 0 117.09375 0 L 89.390625 0 C 86.359375 0 83.960938 -1.34375 82.203125 -4.03125 L 52.578125 -48.734375 L 52.578125 -4.734375 C 52.578125 -3.441406 52.109375 -2.328125 51.171875 -1.390625 C 50.242188 -0.460938 49.140625 0 47.859375 0 L 16.125 0 C 14.84375 0 13.734375 -0.460938 12.796875 -1.390625 C 11.859375 -2.328125 11.390625 -3.441406 11.390625 -4.734375 L 11.390625 -117.96875 C 11.390625 -119.25 11.859375 -120.359375 12.796875 -121.296875 C 13.734375 -122.234375 14.84375 -122.703125 16.125 -122.703125 L 43.828125 -122.703125 C 47.097656 -122.703125 49.488281 -121.359375 51 -118.671875 L 80.625 -70.109375 L 80.625 -117.96875 C 80.625 -119.25 81.09375 -120.359375 82.03125 -121.296875 C 82.96875 -122.234375 84.078125 -122.703125 85.359375 -122.703125 Z M 85.359375 -122.703125 "/></g></g><g style="fill:#2c7a7b;fill-opacity:0.302;"><g transform="translate(162.517322, 182.615694)"><path style="stroke:none" d="M 44.875 0 L 13.5 0 C 12.207031 0 11.09375 -0.460938 10.15625 -1.390625 C 9.226562 -2.328125 8.765625 -3.441406 8.765625 -4.734375 L 8.765625 -86.40625 C 8.765625 -87.695312 9.226562 -88.804688 10.15625 -89.734375 C 11.09375 -90.671875 12.207031 -91.140625 13.5 -91.140625 L 44.875 -91.140625 C 46.15625 -91.140625 47.265625 -90.671875 48.203125 -89.734375 C 49.140625 -88.804688 49.609375 -87.695312 49.609375 -86.40625 L 49.609375 -4.734375 C 49.609375 -3.441406 49.140625 -2.328125 48.203125 -1.390625 C 47.265625 -0.460938 46.15625 0 44.875 0 Z M 48.734375 -124.96875 L 48.734375 -103.765625 C 48.734375 -102.484375 48.265625 -101.375 47.328125 -100.4375 C 46.390625 -99.5 45.28125 -99.03125 44 -99.03125 L 14.375 -99.03125 C 13.082031 -99.03125 11.96875 -99.5 11.03125 -100.4375 C 10.101562 -101.375 9.640625 -102.484375 9.640625 -103.765625 L 9.640625 -124.96875 C 9.640625 -126.257812 10.101562 -127.367188 11.03125 -128.296875 C 11.96875 -129.234375 13.082031 -129.703125 14.375 -129.703125 L 44 -129.703125 C 45.28125 -129.703125 46.390625 -129.234375 47.328125 -128.296875 C 48.265625 -127.367188 48.734375 -126.257812 48.734375 -124.96875 Z M 48.734375 -124.96875 "/></g></g><g style="fill:#2c7a7b;fill-opacity:0.302;"><g transform="translate(220.008235, 182.615694)"><path style="stroke:none" d="M 49.078125 -51.703125 L 49.078125 -39.4375 C 49.078125 -35.46875 49.601562 -32.601562 50.65625 -30.84375 C 51.707031 -29.09375 53.34375 -28.21875 55.5625 -28.21875 C 57.78125 -28.21875 59.296875 -28.597656 60.109375 -29.359375 C 60.929688 -30.117188 61.78125 -31.578125 62.65625 -33.734375 C 63.539062 -35.898438 65.207031 -36.984375 67.65625 -36.984375 L 101.84375 -36.984375 C 103.125 -36.984375 104.234375 -36.515625 105.171875 -35.578125 C 106.109375 -34.648438 106.578125 -33.425781 106.578125 -31.90625 C 106.578125 -30.382812 106.050781 -28.335938 105 -25.765625 C 103.945312 -23.191406 102.132812 -20.269531 99.5625 -17 C 96.988281 -13.726562 93.832031 -10.71875 90.09375 -7.96875 C 86.351562 -5.226562 81.441406 -2.921875 75.359375 -1.046875 C 69.285156 0.816406 62.570312 1.75 55.21875 1.75 C 40.601562 1.75 28.769531 -2.070312 19.71875 -9.71875 C 10.664062 -17.375 6.140625 -27.984375 6.140625 -41.546875 L 6.140625 -49.609375 C 6.140625 -63.160156 10.664062 -73.765625 19.71875 -81.421875 C 28.769531 -89.078125 40.601562 -92.90625 55.21875 -92.90625 C 63.863281 -92.90625 71.691406 -91.585938 78.703125 -88.953125 C 85.710938 -86.328125 91.113281 -83.113281 94.90625 -79.3125 C 98.707031 -75.519531 101.601562 -71.8125 103.59375 -68.1875 C 105.582031 -64.5625 106.578125 -61.785156 106.578125 -59.859375 C 106.578125 -57.929688 106.109375 -56.5 105.171875 -55.5625 C 104.234375 -54.625 103.125 -54.15625 101.84375 -54.15625 L 67.65625 -54.15625 C 65.4375 -54.15625 63.742188 -55.328125 62.578125 -57.671875 C 60.941406 -61.171875 58.78125 -62.921875 56.09375 -62.921875 C 51.414062 -62.921875 49.078125 -59.179688 49.078125 -51.703125 Z M 49.078125 -51.703125 "/></g></g><g style="fill:#2c7a7b;fill-opacity:0.302;"><g transform="translate(330.958743, 182.615694)"><path style="stroke:none" d="M 6.140625 -39.609375 L 6.140625 -51.53125 C 6.140625 -64.851562 10.867188 -75.078125 20.328125 -82.203125 C 29.796875 -89.335938 42.007812 -92.90625 56.96875 -92.90625 C 71.925781 -92.90625 84.132812 -89.335938 93.59375 -82.203125 C 103.0625 -75.078125 107.796875 -64.851562 107.796875 -51.53125 L 107.796875 -39.609375 C 107.796875 -26.171875 103.238281 -15.914062 94.125 -8.84375 C 85.007812 -1.78125 72.625 1.75 56.96875 1.75 C 41.3125 1.75 28.925781 -1.78125 19.8125 -8.84375 C 10.695312 -15.914062 6.140625 -26.171875 6.140625 -39.609375 Z M 64.859375 -38.21875 L 64.859375 -52.9375 C 64.859375 -57.375 64.269531 -60.46875 63.09375 -62.21875 C 61.925781 -63.976562 59.878906 -64.859375 56.953125 -64.859375 C 54.035156 -64.859375 51.992188 -63.976562 50.828125 -62.21875 C 49.660156 -60.46875 49.078125 -57.375 49.078125 -52.9375 L 49.078125 -38.21875 C 49.078125 -33.539062 49.660156 -30.382812 50.828125 -28.75 C 51.992188 -27.113281 54.035156 -26.296875 56.953125 -26.296875 C 59.878906 -26.296875 61.925781 -27.171875 63.09375 -28.921875 C 64.269531 -30.671875 64.859375 -33.769531 64.859375 -38.21875 Z M 64.859375 -38.21875 "/></g></g><g style="fill:#2c7a7b;fill-opacity:0.302;"><g transform="translate(444.012584, 182.615694)"><path style="stroke:none" d="M 7.015625 -91.140625 L 36.640625 -91.140625 C 39.328125 -91.140625 41.195312 -89.738281 42.25 -86.9375 L 56.609375 -46.96875 L 71.515625 -86.9375 C 72.679688 -89.738281 74.664062 -91.140625 77.46875 -91.140625 L 106.75 -91.140625 C 107.800781 -91.140625 108.734375 -90.757812 109.546875 -90 C 110.367188 -89.25 110.78125 -88.460938 110.78125 -87.640625 C 110.78125 -86.816406 110.722656 -86.175781 110.609375 -85.71875 L 61.171875 29.09375 C 60.003906 31.894531 57.957031 33.296875 55.03125 33.296875 L 26.296875 33.296875 C 25.242188 33.296875 24.335938 32.945312 23.578125 32.25 C 22.816406 31.550781 22.4375 30.703125 22.4375 29.703125 C 22.4375 28.710938 22.492188 28.101562 22.609375 27.875 L 36.640625 -5.78125 L 2.796875 -85.71875 C 2.679688 -86.0625 2.625 -86.46875 2.625 -86.9375 C 3.09375 -89.738281 4.554688 -91.140625 7.015625 -91.140625 Z M 7.015625 -91.140625 "/></g></g><g style="fill:#2c7a7b;fill-opacity:0.302;"><g transform="translate(555.664157, 182.615694)"><path style="stroke:none" d="M 6.140625 -26.109375 C 6.140625 -41.890625 18.929688 -52 44.515625 -56.4375 L 63.09375 -59.421875 C 63.09375 -62.921875 62.800781 -65.285156 62.21875 -66.515625 C 61.632812 -67.742188 60.257812 -68.359375 58.09375 -68.359375 C 55.9375 -68.359375 53.804688 -67.421875 51.703125 -65.546875 C 49.597656 -63.679688 47.613281 -62.75 45.75 -62.75 L 15.953125 -62.75 C 13.378906 -62.75 12.09375 -64.003906 12.09375 -66.515625 C 12.09375 -69.023438 13 -71.710938 14.8125 -74.578125 C 16.625 -77.441406 19.253906 -80.273438 22.703125 -83.078125 C 26.148438 -85.890625 31 -88.226562 37.25 -90.09375 C 43.5 -91.96875 50.476562 -92.90625 58.1875 -92.90625 C 73.851562 -92.90625 85.597656 -89.628906 93.421875 -83.078125 C 101.253906 -76.535156 105.171875 -67.1875 105.171875 -55.03125 L 105.171875 -4.734375 C 105.171875 -3.441406 104.703125 -2.328125 103.765625 -1.390625 C 102.828125 -0.460938 101.71875 0 100.4375 0 L 69.765625 0 C 68.472656 0 67.359375 -0.460938 66.421875 -1.390625 C 65.492188 -2.328125 65.03125 -3.441406 65.03125 -4.734375 L 65.03125 -9.640625 C 59.539062 -2.046875 51.535156 1.75 41.015625 1.75 C 30.492188 1.75 22.050781 -0.90625 15.6875 -6.21875 C 9.320312 -11.539062 6.140625 -18.171875 6.140625 -26.109375 Z M 52.234375 -24.1875 C 59.828125 -24.1875 63.625 -28.742188 63.625 -37.859375 L 53.28125 -35.578125 C 48.144531 -34.410156 45.578125 -32.25 45.578125 -29.09375 C 45.578125 -27.695312 46.160156 -26.53125 47.328125 -25.59375 C 48.492188 -24.65625 50.128906 -24.1875 52.234375 -24.1875 Z M 52.234375 -24.1875 "/></g></g><g style="fill:#2c7a7b;fill-opacity:0.502;"><g transform="translate(24.548531, 179.230169)"><path style="stroke:none" d="M 85.359375 -122.703125 L 117.09375 -122.703125 C 118.375 -122.703125 119.484375 -122.234375 120.421875 -121.296875 C 121.359375 -120.359375 121.828125 -119.25 121.828125 -117.96875 L 121.828125 -4.734375 C 121.828125 -3.441406 121.359375 -2.328125 120.421875 -1.390625 C 119.484375 -0.460938 118.375 0 117.09375 0 L 89.390625 0 C 86.359375 0 83.960938 -1.34375 82.203125 -4.03125 L 52.578125 -48.734375 L 52.578125 -4.734375 C 52.578125 -3.441406 52.109375 -2.328125 51.171875 -1.390625 C 50.242188 -0.460938 49.140625 0 47.859375 0 L 16.125 0 C 14.84375 0 13.734375 -0.460938 12.796875 -1.390625 C 11.859375 -2.328125 11.390625 -3.441406 11.390625 -4.734375 L 11.390625 -117.96875 C 11.390625 -119.25 11.859375 -120.359375 12.796875 -121.296875 C 13.734375 -122.234375 14.84375 -122.703125 16.125 -122.703125 L 43.828125 -122.703125 C 47.097656 -122.703125 49.488281 -121.359375 51 -118.671875 L 80.625 -70.109375 L 80.625 -117.96875 C 80.625 -119.25 81.09375 -120.359375 82.03125 -121.296875 C 82.96875 -122.234375 84.078125 -122.703125 85.359375 -122.703125 Z M 85.359375 -122.703125 "/></g></g><g style="fill:#2c7a7b;fill-opacity:0.502;"><g transform="translate(156.882865, 179.230169)"><path style="stroke:none" d="M 44.875 0 L 13.5 0 C 12.207031 0 11.09375 -0.460938 10.15625 -1.390625 C 9.226562 -2.328125 8.765625 -3.441406 8.765625 -4.734375 L 8.765625 -86.40625 C 8.765625 -87.695312 9.226562 -88.804688 10.15625 -89.734375 C 11.09375 -90.671875 12.207031 -91.140625 13.5 -91.140625 L 44.875 -91.140625 C 46.15625 -91.140625 47.265625 -90.671875 48.203125 -89.734375 C 49.140625 -88.804688 49.609375 -87.695312 49.609375 -86.40625 L 49.609375 -4.734375 C 49.609375 -3.441406 49.140625 -2.328125 48.203125 -1.390625 C 47.265625 -0.460938 46.15625 0 44.875 0 Z M 48.734375 -124.96875 L 48.734375 -103.765625 C 48.734375 -102.484375 48.265625 -101.375 47.328125 -100.4375 C 46.390625 -99.5 45.28125 -99.03125 44 -99.03125 L 14.375 -99.03125 C 13.082031 -99.03125 11.96875 -99.5 11.03125 -100.4375 C 10.101562 -101.375 9.640625 -102.484375 9.640625 -103.765625 L 9.640625 -124.96875 C 9.640625 -126.257812 10.101562 -127.367188 11.03125 -128.296875 C 11.96875 -129.234375 13.082031 -129.703125 14.375 -129.703125 L 44 -129.703125 C 45.28125 -129.703125 46.390625 -129.234375 47.328125 -128.296875 C 48.265625 -127.367188 48.734375 -126.257812 48.734375 -124.96875 Z M 48.734375 -124.96875 "/></g></g><g style="fill:#2c7a7b;fill-opacity:0.502;"><g transform="translate(214.373778, 179.230169)"><path style="stroke:none" d="M 49.078125 -51.703125 L 49.078125 -39.4375 C 49.078125 -35.46875 49.601562 -32.601562 50.65625 -30.84375 C 51.707031 -29.09375 53.34375 -28.21875 55.5625 -28.21875 C 57.78125 -28.21875 59.296875 -28.597656 60.109375 -29.359375 C 60.929688 -30.117188 61.78125 -31.578125 62.65625 -33.734375 C 63.539062 -35.898438 65.207031 -36.984375 67.65625 -36.984375 L 101.84375 -36.984375 C 103.125 -36.984375 104.234375 -36.515625 105.171875 -35.578125 C 106.109375 -34.648438 106.578125 -33.425781 106.578125 -31.90625 C 106.578125 -30.382812 106.050781 -28.335938 105 -25.765625 C 103.945312 -23.191406 102.132812 -20.269531 99.5625 -17 C 96.988281 -13.726562 93.832031 -10.71875 90.09375 -7.96875 C 86.351562 -5.226562 81.441406 -2.921875 75.359375 -1.046875 C 69.285156 0.816406 62.570312 1.75 55.21875 1.75 C 40.601562 1.75 28.769531 -2.070312 19.71875 -9.71875 C 10.664062 -17.375 6.140625 -27.984375 6.140625 -41.546875 L 6.140625 -49.609375 C 6.140625 -63.160156 10.664062 -73.765625 19.71875 -81.421875 C 28.769531 -89.078125 40.601562 -92.90625 55.21875 -92.90625 C 63.863281 -92.90625 71.691406 -91.585938 78.703125 -88.953125 C 85.710938 -86.328125 91.113281 -83.113281 94.90625 -79.3125 C 98.707031 -75.519531 101.601562 -71.8125 103.59375 -68.1875 C 105.582031 -64.5625 106.578125 -61.785156 106.578125 -59.859375 C 106.578125 -57.929688 106.109375 -56.5 105.171875 -55.5625 C 104.234375 -54.625 103.125 -54.15625 101.84375 -54.15625 L 67.65625 -54.15625 C 65.4375 -54.15625 63.742188 -55.328125 62.578125 -57.671875 C 60.941406 -61.171875 58.78125 -62.921875 56.09375 -62.921875 C 51.414062 -62.921875 49.078125 -59.179688 49.078125 -51.703125 Z M 49.078125 -51.703125 "/></g></g><g style="fill:#2c7a7b;fill-opacity:0.502;"><g transform="translate(325.324286, 179.230169)"><path style="stroke:none" d="M 6.140625 -39.609375 L 6.140625 -51.53125 C 6.140625 -64.851562 10.867188 -75.078125 20.328125 -82.203125 C 29.796875 -89.335938 42.007812 -92.90625 56.96875 -92.90625 C 71.925781 -92.90625 84.132812 -89.335938 93.59375 -82.203125 C 103.0625 -75.078125 107.796875 -64.851562 107.796875 -51.53125 L 107.796875 -39.609375 C 107.796875 -26.171875 103.238281 -15.914062 94.125 -8.84375 C 85.007812 -1.78125 72.625 1.75 56.96875 1.75 C 41.3125 1.75 28.925781 -1.78125 19.8125 -8.84375 C 10.695312 -15.914062 6.140625 -26.171875 6.140625 -39.609375 Z M 64.859375 -38.21875 L 64.859375 -52.9375 C 64.859375 -57.375 64.269531 -60.46875 63.09375 -62.21875 C 61.925781 -63.976562 59.878906 -64.859375 56.953125 -64.859375 C 54.035156 -64.859375 51.992188 -63.976562 50.828125 -62.21875 C 49.660156 -60.46875 49.078125 -57.375 49.078125 -52.9375 L 49.078125 -38.21875 C 49.078125 -33.539062 49.660156 -30.382812 50.828125 -28.75 C 51.992188 -27.113281 54.035156 -26.296875 56.953125 -26.296875 C 59.878906 -26.296875 61.925781 -27.171875 63.09375 -28.921875 C 64.269531 -30.671875 64.859375 -33.769531 64.859375 -38.21875 Z M 64.859375 -38.21875 "/></g></g><g style="fill:#2c7a7b;fill-opacity:0.502;"><g transform="translate(438.378127, 179.230169)"><path style="stroke:none" d="M 7.015625 -91.140625 L 36.640625 -91.140625 C 39.328125 -91.140625 41.195312 -89.738281 42.25 -86.9375 L 56.609375 -46.96875 L 71.515625 -86.9375 C 72.679688 -89.738281 74.664062 -91.140625 77.46875 -91.140625 L 106.75 -91.140625 C 107.800781 -91.140625 108.734375 -90.757812 109.546875 -90 C 110.367188 -89.25 110.78125 -88.460938 110.78125 -87.640625 C 110.78125 -86.816406 110.722656 -86.175781 110.609375 -85.71875 L 61.171875 29.09375 C 60.003906 31.894531 57.957031 33.296875 55.03125 33.296875 L 26.296875 33.296875 C 25.242188 33.296875 24.335938 32.945312 23.578125 32.25 C 22.816406 31.550781 22.4375 30.703125 22.4375 29.703125 C 22.4375 28.710938 22.492188 28.101562 22.609375 27.875 L 36.640625 -5.78125 L 2.796875 -85.71875 C 2.679688 -86.0625 2.625 -86.46875 2.625 -86.9375 C 3.09375 -89.738281 4.554688 -91.140625 7.015625 -91.140625 Z M 7.015625 -91.140625 "/></g></g><g style="fill:#2c7a7b;fill-opacity:0.502;"><g transform="translate(550.0297, 179.230169)"><path style="stroke:none" d="M 6.140625 -26.109375 C 6.140625 -41.890625 18.929688 -52 44.515625 -56.4375 L 63.09375 -59.421875 C 63.09375 -62.921875 62.800781 -65.285156 62.21875 -66.515625 C 61.632812 -67.742188 60.257812 -68.359375 58.09375 -68.359375 C 55.9375 -68.359375 53.804688 -67.421875 51.703125 -65.546875 C 49.597656 -63.679688 47.613281 -62.75 45.75 -62.75 L 15.953125 -62.75 C 13.378906 -62.75 12.09375 -64.003906 12.09375 -66.515625 C 12.09375 -69.023438 13 -71.710938 14.8125 -74.578125 C 16.625 -77.441406 19.253906 -80.273438 22.703125 -83.078125 C 26.148438 -85.890625 31 -88.226562 37.25 -90.09375 C 43.5 -91.96875 50.476562 -92.90625 58.1875 -92.90625 C 73.851562 -92.90625 85.597656 -89.628906 93.421875 -83.078125 C 101.253906 -76.535156 105.171875 -67.1875 105.171875 -55.03125 L 105.171875 -4.734375 C 105.171875 -3.441406 104.703125 -2.328125 103.765625 -1.390625 C 102.828125 -0.460938 101.71875 0 100.4375 0 L 69.765625 0 C 68.472656 0 67.359375 -0.460938 66.421875 -1.390625 C 65.492188 -2.328125 65.03125 -3.441406 65.03125 -4.734375 L 65.03125 -9.640625 C 59.539062 -2.046875 51.535156 1.75 41.015625 1.75 C 30.492188 1.75 22.050781 -0.90625 15.6875 -6.21875 C 9.320312 -11.539062 6.140625 -18.171875 6.140625 -26.109375 Z M 52.234375 -24.1875 C 59.828125 -24.1875 63.625 -28.742188 63.625 -37.859375 L 53.28125 -35.578125 C 48.144531 -34.410156 45.578125 -32.25 45.578125 -29.09375 C 45.578125 -27.695312 46.160156 -26.53125 47.328125 -25.59375 C 48.492188 -24.65625 50.128906 -24.1875 52.234375 -24.1875 Z M 52.234375 -24.1875 "/></g></g><g style="fill:#0e69ad;fill-opacity:1;"><g transform="translate(18.914074, 175.844644)"><path style="stroke:none" d="M 85.359375 -122.703125 L 117.09375 -122.703125 C 118.375 -122.703125 119.484375 -122.234375 120.421875 -121.296875 C 121.359375 -120.359375 121.828125 -119.25 121.828125 -117.96875 L 121.828125 -4.734375 C 121.828125 -3.441406 121.359375 -2.328125 120.421875 -1.390625 C 119.484375 -0.460938 118.375 0 117.09375 0 L 89.390625 0 C 86.359375 0 83.960938 -1.34375 82.203125 -4.03125 L 52.578125 -48.734375 L 52.578125 -4.734375 C 52.578125 -3.441406 52.109375 -2.328125 51.171875 -1.390625 C 50.242188 -0.460938 49.140625 0 47.859375 0 L 16.125 0 C 14.84375 0 13.734375 -0.460938 12.796875 -1.390625 C 11.859375 -2.328125 11.390625 -3.441406 11.390625 -4.734375 L 11.390625 -117.96875 C 11.390625 -119.25 11.859375 -120.359375 12.796875 -121.296875 C 13.734375 -122.234375 14.84375 -122.703125 16.125 -122.703125 L 43.828125 -122.703125 C 47.097656 -122.703125 49.488281 -121.359375 51 -118.671875 L 80.625 -70.109375 L 80.625 -117.96875 C 80.625 -119.25 81.09375 -120.359375 82.03125 -121.296875 C 82.96875 -122.234375 84.078125 -122.703125 85.359375 -122.703125 Z M 85.359375 -122.703125 "/></g></g><g style="fill:#0e69ad;fill-opacity:1;"><g transform="translate(151.248408, 175.844644)"><path style="stroke:none" d="M 44.875 0 L 13.5 0 C 12.207031 0 11.09375 -0.460938 10.15625 -1.390625 C 9.226562 -2.328125 8.765625 -3.441406 8.765625 -4.734375 L 8.765625 -86.40625 C 8.765625 -87.695312 9.226562 -88.804688 10.15625 -89.734375 C 11.09375 -90.671875 12.207031 -91.140625 13.5 -91.140625 L 44.875 -91.140625 C 46.15625 -91.140625 47.265625 -90.671875 48.203125 -89.734375 C 49.140625 -88.804688 49.609375 -87.695312 49.609375 -86.40625 L 49.609375 -4.734375 C 49.609375 -3.441406 49.140625 -2.328125 48.203125 -1.390625 C 47.265625 -0.460938 46.15625 0 44.875 0 Z M 48.734375 -124.96875 L 48.734375 -103.765625 C 48.734375 -102.484375 48.265625 -101.375 47.328125 -100.4375 C 46.390625 -99.5 45.28125 -99.03125 44 -99.03125 L 14.375 -99.03125 C 13.082031 -99.03125 11.96875 -99.5 11.03125 -100.4375 C 10.101562 -101.375 9.640625 -102.484375 9.640625 -103.765625 L 9.640625 -124.96875 C 9.640625 -126.257812 10.101562 -127.367188 11.03125 -128.296875 C 11.96875 -129.234375 13.082031 -129.703125 14.375 -129.703125 L 44 -129.703125 C 45.28125 -129.703125 46.390625 -129.234375 47.328125 -128.296875 C 48.265625 -127.367188 48.734375 -126.257812 48.734375 -124.96875 Z M 48.734375 -124.96875 "/></g></g><g style="fill:#0e69ad;fill-opacity:1;"><g transform="translate(208.739321, 175.844644)"><path style="stroke:none" d="M 49.078125 -51.703125 L 49.078125 -39.4375 C 49.078125 -35.46875 49.601562 -32.601562 50.65625 -30.84375 C 51.707031 -29.09375 53.34375 -28.21875 55.5625 -28.21875 C 57.78125 -28.21875 59.296875 -28.597656 60.109375 -29.359375 C 60.929688 -30.117188 61.78125 -31.578125 62.65625 -33.734375 C 63.539062 -35.898438 65.207031 -36.984375 67.65625 -36.984375 L 101.84375 -36.984375 C 103.125 -36.984375 104.234375 -36.515625 105.171875 -35.578125 C 106.109375 -34.648438 106.578125 -33.425781 106.578125 -31.90625 C 106.578125 -30.382812 106.050781 -28.335938 105 -25.765625 C 103.945312 -23.191406 102.132812 -20.269531 99.5625 -17 C 96.988281 -13.726562 93.832031 -10.71875 90.09375 -7.96875 C 86.351562 -5.226562 81.441406 -2.921875 75.359375 -1.046875 C 69.285156 0.816406 62.570312 1.75 55.21875 1.75 C 40.601562 1.75 28.769531 -2.070312 19.71875 -9.71875 C 10.664062 -17.375 6.140625 -27.984375 6.140625 -41.546875 L 6.140625 -49.609375 C 6.140625 -63.160156 10.664062 -73.765625 19.71875 -81.421875 C 28.769531 -89.078125 40.601562 -92.90625 55.21875 -92.90625 C 63.863281 -92.90625 71.691406 -91.585938 78.703125 -88.953125 C 85.710938 -86.328125 91.113281 -83.113281 94.90625 -79.3125 C 98.707031 -75.519531 101.601562 -71.8125 103.59375 -68.1875 C 105.582031 -64.5625 106.578125 -61.785156 106.578125 -59.859375 C 106.578125 -57.929688 106.109375 -56.5 105.171875 -55.5625 C 104.234375 -54.625 103.125 -54.15625 101.84375 -54.15625 L 67.65625 -54.15625 C 65.4375 -54.15625 63.742188 -55.328125 62.578125 -57.671875 C 60.941406 -61.171875 58.78125 -62.921875 56.09375 -62.921875 C 51.414062 -62.921875 49.078125 -59.179688 49.078125 -51.703125 Z M 49.078125 -51.703125 "/></g></g><g style="fill:#0e69ad;fill-opacity:1;"><g transform="translate(319.689829, 175.844644)"><path style="stroke:none" d="M 6.140625 -39.609375 L 6.140625 -51.53125 C 6.140625 -64.851562 10.867188 -75.078125 20.328125 -82.203125 C 29.796875 -89.335938 42.007812 -92.90625 56.96875 -92.90625 C 71.925781 -92.90625 84.132812 -89.335938 93.59375 -82.203125 C 103.0625 -75.078125 107.796875 -64.851562 107.796875 -51.53125 L 107.796875 -39.609375 C 107.796875 -26.171875 103.238281 -15.914062 94.125 -8.84375 C 85.007812 -1.78125 72.625 1.75 56.96875 1.75 C 41.3125 1.75 28.925781 -1.78125 19.8125 -8.84375 C 10.695312 -15.914062 6.140625 -26.171875 6.140625 -39.609375 Z M 64.859375 -38.21875 L 64.859375 -52.9375 C 64.859375 -57.375 64.269531 -60.46875 63.09375 -62.21875 C 61.925781 -63.976562 59.878906 -64.859375 56.953125 -64.859375 C 54.035156 -64.859375 51.992188 -63.976562 50.828125 -62.21875 C 49.660156 -60.46875 49.078125 -57.375 49.078125 -52.9375 L 49.078125 -38.21875 C 49.078125 -33.539062 49.660156 -30.382812 50.828125 -28.75 C 51.992188 -27.113281 54.035156 -26.296875 56.953125 -26.296875 C 59.878906 -26.296875 61.925781 -27.171875 63.09375 -28.921875 C 64.269531 -30.671875 64.859375 -33.769531 64.859375 -38.21875 Z M 64.859375 -38.21875 "/></g></g><g style="fill:#0e69ad;fill-opacity:1;"><g transform="translate(432.74367, 175.844644)"><path style="stroke:none" d="M 7.015625 -91.140625 L 36.640625 -91.140625 C 39.328125 -91.140625 41.195312 -89.738281 42.25 -86.9375 L 56.609375 -46.96875 L 71.515625 -86.9375 C 72.679688 -89.738281 74.664062 -91.140625 77.46875 -91.140625 L 106.75 -91.140625 C 107.800781 -91.140625 108.734375 -90.757812 109.546875 -90 C 110.367188 -89.25 110.78125 -88.460938 110.78125 -87.640625 C 110.78125 -86.816406 110.722656 -86.175781 110.609375 -85.71875 L 61.171875 29.09375 C 60.003906 31.894531 57.957031 33.296875 55.03125 33.296875 L 26.296875 33.296875 C 25.242188 33.296875 24.335938 32.945312 23.578125 32.25 C 22.816406 31.550781 22.4375 30.703125 22.4375 29.703125 C 22.4375 28.710938 22.492188 28.101562 22.609375 27.875 L 36.640625 -5.78125 L 2.796875 -85.71875 C 2.679688 -86.0625 2.625 -86.46875 2.625 -86.9375 C 3.09375 -89.738281 4.554688 -91.140625 7.015625 -91.140625 Z M 7.015625 -91.140625 "/></g></g><g style="fill:#0e69ad;fill-opacity:1;"><g transform="translate(544.395243, 175.844644)"><path style="stroke:none" d="M 6.140625 -26.109375 C 6.140625 -41.890625 18.929688 -52 44.515625 -56.4375 L 63.09375 -59.421875 C 63.09375 -62.921875 62.800781 -65.285156 62.21875 -66.515625 C 61.632812 -67.742188 60.257812 -68.359375 58.09375 -68.359375 C 55.9375 -68.359375 53.804688 -67.421875 51.703125 -65.546875 C 49.597656 -63.679688 47.613281 -62.75 45.75 -62.75 L 15.953125 -62.75 C 13.378906 -62.75 12.09375 -64.003906 12.09375 -66.515625 C 12.09375 -69.023438 13 -71.710938 14.8125 -74.578125 C 16.625 -77.441406 19.253906 -80.273438 22.703125 -83.078125 C 26.148438 -85.890625 31 -88.226562 37.25 -90.09375 C 43.5 -91.96875 50.476562 -92.90625 58.1875 -92.90625 C 73.851562 -92.90625 85.597656 -89.628906 93.421875 -83.078125 C 101.253906 -76.535156 105.171875 -67.1875 105.171875 -55.03125 L 105.171875 -4.734375 C 105.171875 -3.441406 104.703125 -2.328125 103.765625 -1.390625 C 102.828125 -0.460938 101.71875 0 100.4375 0 L 69.765625 0 C 68.472656 0 67.359375 -0.460938 66.421875 -1.390625 C 65.492188 -2.328125 65.03125 -3.441406 65.03125 -4.734375 L 65.03125 -9.640625 C 59.539062 -2.046875 51.535156 1.75 41.015625 1.75 C 30.492188 1.75 22.050781 -0.90625 15.6875 -6.21875 C 9.320312 -11.539062 6.140625 -18.171875 6.140625 -26.109375 Z M 52.234375 -24.1875 C 59.828125 -24.1875 63.625 -28.742188 63.625 -37.859375 L 53.28125 -35.578125 C 48.144531 -34.410156 45.578125 -32.25 45.578125 -29.09375 C 45.578125 -27.695312 46.160156 -26.53125 47.328125 -25.59375 C 48.492188 -24.65625 50.128906 -24.1875 52.234375 -24.1875 Z M 52.234375 -24.1875 "/></g></g><g style="fill:#2c7a7b;fill-opacity:0.302;"><g transform="translate(30.182988, 329.615684)"><path style="stroke:none" d="M 38.515625 -54.8125 L 38.515625 -33.59375 C 38.515625 -26.769531 41.628906 -23.359375 47.859375 -23.359375 C 52.660156 -23.359375 55.820312 -25.632812 57.34375 -30.1875 C 57.757812 -31.613281 58.28125 -32.578125 58.90625 -33.078125 C 59.539062 -33.585938 60.578125 -33.84375 62.015625 -33.84375 L 87.78125 -33.84375 C 88.53125 -33.84375 89.179688 -33.566406 89.734375 -33.015625 C 90.285156 -32.472656 90.5625 -31.820312 90.5625 -31.0625 C 90.5625 -23.738281 88.453125 -17.59375 84.234375 -12.625 C 76.492188 -3.363281 64.414062 1.265625 48 1.265625 C 35.113281 1.265625 24.835938 -1.570312 17.171875 -7.25 C 9.515625 -12.9375 5.6875 -21.675781 5.6875 -33.46875 L 5.6875 -54.9375 C 5.6875 -66.46875 9.597656 -75.140625 17.421875 -80.953125 C 25.253906 -86.765625 35.445312 -89.671875 48 -89.671875 C 64.414062 -89.671875 76.492188 -85.039062 84.234375 -75.78125 C 88.453125 -70.8125 90.5625 -64.664062 90.5625 -57.34375 C 90.5625 -56.582031 90.285156 -55.925781 89.734375 -55.375 C 89.179688 -54.832031 88.53125 -54.5625 87.78125 -54.5625 L 62.015625 -54.5625 C 60.660156 -54.5625 59.664062 -54.8125 59.03125 -55.3125 C 58.40625 -55.820312 57.84375 -56.789062 57.34375 -58.21875 C 55.738281 -62.769531 52.578125 -65.046875 47.859375 -65.046875 C 41.628906 -65.046875 38.515625 -61.632812 38.515625 -54.8125 Z M 38.515625 -54.8125 "/></g></g><g style="fill:#2c7a7b;fill-opacity:0.302;"><g transform="translate(123.892275, 329.615684)"><path style="stroke:none" d="M 4.421875 -28.546875 L 4.421875 -37.125 C 4.421875 -46.726562 7.828125 -54.097656 14.640625 -59.234375 C 21.460938 -64.367188 30.265625 -66.9375 41.046875 -66.9375 C 51.828125 -66.9375 60.625 -64.367188 67.4375 -59.234375 C 74.257812 -54.097656 77.671875 -46.726562 77.671875 -37.125 L 77.671875 -28.546875 C 77.671875 -18.859375 74.382812 -11.46875 67.8125 -6.375 C 61.25 -1.28125 52.328125 1.265625 41.046875 1.265625 C 29.765625 1.265625 20.835938 -1.28125 14.265625 -6.375 C 7.703125 -11.46875 4.421875 -18.859375 4.421875 -28.546875 Z M 46.734375 -27.53125 L 46.734375 -38.140625 C 46.734375 -41.335938 46.3125 -43.566406 45.46875 -44.828125 C 44.625 -46.097656 43.148438 -46.734375 41.046875 -46.734375 C 38.941406 -46.734375 37.46875 -46.097656 36.625 -44.828125 C 35.78125 -43.566406 35.359375 -41.335938 35.359375 -38.140625 L 35.359375 -27.53125 C 35.359375 -24.164062 35.78125 -21.890625 36.625 -20.703125 C 37.46875 -19.523438 38.941406 -18.9375 41.046875 -18.9375 C 43.148438 -18.9375 44.625 -19.566406 45.46875 -20.828125 C 46.3125 -22.097656 46.734375 -24.332031 46.734375 -27.53125 Z M 46.734375 -27.53125 "/></g></g><g style="fill:#2c7a7b;fill-opacity:0.302;"><g transform="translate(205.351143, 329.615684)"><path style="stroke:none" d="M 4.421875 -18.8125 C 4.421875 -30.1875 13.640625 -37.472656 32.078125 -40.671875 L 45.46875 -42.8125 C 45.46875 -45.34375 45.253906 -47.046875 44.828125 -47.921875 C 44.410156 -48.804688 43.421875 -49.25 41.859375 -49.25 C 40.304688 -49.25 38.769531 -48.578125 37.25 -47.234375 C 35.738281 -45.890625 34.3125 -45.21875 32.96875 -45.21875 L 11.5 -45.21875 C 9.644531 -45.21875 8.71875 -46.117188 8.71875 -47.921875 C 8.71875 -49.734375 9.367188 -51.671875 10.671875 -53.734375 C 11.972656 -55.796875 13.863281 -57.835938 16.34375 -59.859375 C 18.832031 -61.878906 22.328125 -63.5625 26.828125 -64.90625 C 31.335938 -66.257812 36.375 -66.9375 41.9375 -66.9375 C 53.21875 -66.9375 61.675781 -64.578125 67.3125 -59.859375 C 72.957031 -55.148438 75.78125 -48.414062 75.78125 -39.65625 L 75.78125 -3.40625 C 75.78125 -2.476562 75.441406 -1.675781 74.765625 -1 C 74.085938 -0.332031 73.289062 0 72.375 0 L 50.265625 0 C 49.335938 0 48.535156 -0.332031 47.859375 -1 C 47.191406 -1.675781 46.859375 -2.476562 46.859375 -3.40625 L 46.859375 -6.953125 C 42.898438 -1.472656 37.128906 1.265625 29.546875 1.265625 C 21.972656 1.265625 15.890625 -0.648438 11.296875 -4.484375 C 6.710938 -8.316406 4.421875 -13.09375 4.421875 -18.8125 Z M 37.640625 -17.421875 C 43.109375 -17.421875 45.84375 -20.707031 45.84375 -27.28125 L 38.390625 -25.640625 C 34.691406 -24.796875 32.84375 -23.238281 32.84375 -20.96875 C 32.84375 -19.957031 33.257812 -19.113281 34.09375 -18.4375 C 34.9375 -17.757812 36.117188 -17.421875 37.640625 -17.421875 Z M 37.640625 -17.421875 "/></g></g><g style="fill:#2c7a7b;fill-opacity:0.302;"><g transform="translate(286.178561, 329.615684)"><path style="stroke:none" d="M 41.296875 -18.1875 C 41.296875 -19.03125 41.085938 -19.703125 40.671875 -20.203125 C 39.578125 -21.554688 35.535156 -22.882812 28.546875 -24.1875 C 21.554688 -25.488281 15.890625 -27.800781 11.546875 -31.125 C 7.210938 -34.457031 5.046875 -39.113281 5.046875 -45.09375 C 5.046875 -51.070312 7.910156 -56.207031 13.640625 -60.5 C 19.367188 -64.789062 27.09375 -66.9375 36.8125 -66.9375 C 46.539062 -66.9375 54.519531 -64.914062 60.75 -60.875 C 66.976562 -56.832031 70.09375 -52.75 70.09375 -48.625 C 70.09375 -47.695312 69.816406 -46.894531 69.265625 -46.21875 C 68.722656 -45.550781 68.070312 -45.21875 67.3125 -45.21875 L 46.09375 -45.21875 C 44.832031 -45.21875 43.273438 -45.890625 41.421875 -47.234375 C 39.566406 -48.578125 38.175781 -49.25 37.25 -49.25 C 35.320312 -49.25 34.359375 -48.578125 34.359375 -47.234375 C 34.359375 -46.390625 34.566406 -45.71875 34.984375 -45.21875 C 36.078125 -43.945312 40.664062 -42.722656 48.75 -41.546875 C 56.832031 -40.367188 62.875 -37.78125 66.875 -33.78125 C 70.875 -29.78125 72.875 -25.335938 72.875 -20.453125 C 72.875 -13.640625 69.800781 -8.296875 63.65625 -4.421875 C 57.507812 -0.546875 48.796875 1.390625 37.515625 1.390625 C 31.535156 1.390625 26.226562 0.71875 21.59375 -0.625 C 16.96875 -1.976562 13.429688 -3.664062 10.984375 -5.6875 C 6.179688 -9.644531 3.78125 -13.347656 3.78125 -16.796875 C 3.78125 -17.722656 4.078125 -18.519531 4.671875 -19.1875 C 5.265625 -19.863281 5.976562 -20.203125 6.8125 -20.203125 L 28.796875 -20.203125 C 29.972656 -20.203125 31.507812 -19.550781 33.40625 -18.25 C 35.300781 -16.945312 37.085938 -16.296875 38.765625 -16.296875 C 40.453125 -16.296875 41.296875 -16.925781 41.296875 -18.1875 Z M 41.296875 -18.1875 "/></g></g><g style="fill:#2c7a7b;fill-opacity:0.302;"><g transform="translate(361.82794, 329.615684)"><path style="stroke:none" d="M 44.203125 -43.578125 L 44.203125 -29.6875 C 44.203125 -25.46875 46.015625 -23.359375 49.640625 -23.359375 L 61.125 -23.359375 C 62.050781 -23.359375 62.847656 -23.019531 63.515625 -22.34375 C 64.191406 -21.675781 64.53125 -20.878906 64.53125 -19.953125 L 64.53125 -3.40625 C 64.53125 -2.476562 64.191406 -1.675781 63.515625 -1 C 62.847656 -0.332031 62.050781 0 61.125 0 L 46.859375 0 C 25.804688 0 15.28125 -9.050781 15.28125 -27.15625 L 15.28125 -43.578125 L 5.296875 -43.578125 C 4.378906 -43.578125 3.582031 -43.910156 2.90625 -44.578125 C 2.226562 -45.253906 1.890625 -46.054688 1.890625 -46.984375 L 1.890625 -62.265625 C 1.890625 -63.191406 2.226562 -63.988281 2.90625 -64.65625 C 3.582031 -65.332031 4.378906 -65.671875 5.296875 -65.671875 L 15.28125 -65.671875 L 15.28125 -86.265625 C 15.28125 -87.191406 15.613281 -87.988281 16.28125 -88.65625 C 16.957031 -89.332031 17.757812 -89.671875 18.6875 -89.671875 L 40.796875 -89.671875 C 41.722656 -89.671875 42.519531 -89.332031 43.1875 -88.65625 C 43.863281 -87.988281 44.203125 -87.191406 44.203125 -86.265625 L 44.203125 -65.671875 L 60.125 -65.671875 C 61.039062 -65.671875 61.835938 -65.332031 62.515625 -64.65625 C 63.191406 -63.988281 63.53125 -63.191406 63.53125 -62.265625 L 63.53125 -46.984375 C 63.53125 -46.054688 63.191406 -45.253906 62.515625 -44.578125 C 61.835938 -43.910156 61.039062 -43.578125 60.125 -43.578125 Z M 44.203125 -43.578125 "/></g></g><g style="fill:#2c7a7b;fill-opacity:0.302;"><g transform="translate(428.257958, 329.615684)"><path style="stroke:none" d="M 4.421875 -18.8125 C 4.421875 -30.1875 13.640625 -37.472656 32.078125 -40.671875 L 45.46875 -42.8125 C 45.46875 -45.34375 45.253906 -47.046875 44.828125 -47.921875 C 44.410156 -48.804688 43.421875 -49.25 41.859375 -49.25 C 40.304688 -49.25 38.769531 -48.578125 37.25 -47.234375 C 35.738281 -45.890625 34.3125 -45.21875 32.96875 -45.21875 L 11.5 -45.21875 C 9.644531 -45.21875 8.71875 -46.117188 8.71875 -47.921875 C 8.71875 -49.734375 9.367188 -51.671875 10.671875 -53.734375 C 11.972656 -55.796875 13.863281 -57.835938 16.34375 -59.859375 C 18.832031 -61.878906 22.328125 -63.5625 26.828125 -64.90625 C 31.335938 -66.257812 36.375 -66.9375 41.9375 -66.9375 C 53.21875 -66.9375 61.675781 -64.578125 67.3125 -59.859375 C 72.957031 -55.148438 75.78125 -48.414062 75.78125 -39.65625 L 75.78125 -3.40625 C 75.78125 -2.476562 75.441406 -1.675781 74.765625 -1 C 74.085938 -0.332031 73.289062 0 72.375 0 L 50.265625 0 C 49.335938 0 48.535156 -0.332031 47.859375 -1 C 47.191406 -1.675781 46.859375 -2.476562 46.859375 -3.40625 L 46.859375 -6.953125 C 42.898438 -1.472656 37.128906 1.265625 29.546875 1.265625 C 21.972656 1.265625 15.890625 -0.648438 11.296875 -4.484375 C 6.710938 -8.316406 4.421875 -13.09375 4.421875 -18.8125 Z M 37.640625 -17.421875 C 43.109375 -17.421875 45.84375 -20.707031 45.84375 -27.28125 L 38.390625 -25.640625 C 34.691406 -24.796875 32.84375 -23.238281 32.84375 -20.96875 C 32.84375 -19.957031 33.257812 -19.113281 34.09375 -18.4375 C 34.9375 -17.757812 36.117188 -17.421875 37.640625 -17.421875 Z M 37.640625 -17.421875 "/></g></g><g style="fill:#2c7a7b;fill-opacity:0.302;"><g transform="translate(509.085376, 329.615684)"><path style="stroke:none" d="M 32.328125 0 L 9.71875 0 C 8.789062 0 7.988281 -0.332031 7.3125 -1 C 6.644531 -1.675781 6.3125 -2.476562 6.3125 -3.40625 L 6.3125 -86.265625 C 6.3125 -87.191406 6.644531 -87.988281 7.3125 -88.65625 C 7.988281 -89.332031 8.789062 -89.671875 9.71875 -89.671875 L 32.328125 -89.671875 C 33.253906 -89.671875 34.050781 -89.332031 34.71875 -88.65625 C 35.394531 -87.988281 35.734375 -87.191406 35.734375 -86.265625 L 35.734375 -3.40625 C 35.734375 -2.476562 35.394531 -1.675781 34.71875 -1 C 34.050781 -0.332031 33.253906 0 32.328125 0 Z M 32.328125 0 "/></g></g><g style="fill:#2c7a7b;fill-opacity:0.302;"><g transform="translate(550.509415, 329.615684)"><path style="stroke:none" d=""/></g></g><g style="fill:#2c7a7b;fill-opacity:0.302;"><g transform="translate(586.502867, 329.615684)"><path style="stroke:none" d="M 63.65625 -88.40625 L 88.40625 -88.40625 C 89.332031 -88.40625 90.128906 -88.066406 90.796875 -87.390625 C 91.472656 -86.722656 91.8125 -85.925781 91.8125 -85 L 91.8125 -3.40625 C 91.8125 -2.476562 91.472656 -1.675781 90.796875 -1 C 90.128906 -0.332031 89.332031 0 88.40625 0 L 63.65625 0 C 62.726562 0 61.925781 -0.332031 61.25 -1 C 60.582031 -1.675781 60.25 -2.476562 60.25 -3.40625 L 60.25 -30.6875 L 39.78125 -30.6875 L 39.78125 -3.40625 C 39.78125 -2.476562 39.441406 -1.675781 38.765625 -1 C 38.097656 -0.332031 37.300781 0 36.375 0 L 11.625 0 C 10.695312 0 9.894531 -0.3125 9.21875 -0.9375 C 8.539062 -1.570312 8.203125 -2.394531 8.203125 -3.40625 L 8.203125 -85 C 8.203125 -85.925781 8.539062 -86.722656 9.21875 -87.390625 C 9.894531 -88.066406 10.695312 -88.40625 11.625 -88.40625 L 36.375 -88.40625 C 37.300781 -88.40625 38.097656 -88.066406 38.765625 -87.390625 C 39.441406 -86.722656 39.78125 -85.925781 39.78125 -85 L 39.78125 -58.46875 L 60.25 -58.46875 L 60.25 -85 C 60.25 -85.925781 60.582031 -86.722656 61.25 -87.390625 C 61.925781 -88.066406 62.726562 -88.40625 63.65625 -88.40625 Z M 63.65625 -88.40625 "/></g></g><g style="fill:#2c7a7b;fill-opacity:0.302;"><g transform="translate(685.895301, 329.615684)"><path style="stroke:none" d="M 4.421875 -28.546875 L 4.421875 -37.125 C 4.421875 -46.726562 7.828125 -54.097656 14.640625 -59.234375 C 21.460938 -64.367188 30.265625 -66.9375 41.046875 -66.9375 C 51.828125 -66.9375 60.625 -64.367188 67.4375 -59.234375 C 74.257812 -54.097656 77.671875 -46.726562 77.671875 -37.125 L 77.671875 -28.546875 C 77.671875 -18.859375 74.382812 -11.46875 67.8125 -6.375 C 61.25 -1.28125 52.328125 1.265625 41.046875 1.265625 C 29.765625 1.265625 20.835938 -1.28125 14.265625 -6.375 C 7.703125 -11.46875 4.421875 -18.859375 4.421875 -28.546875 Z M 46.734375 -27.53125 L 46.734375 -38.140625 C 46.734375 -41.335938 46.3125 -43.566406 45.46875 -44.828125 C 44.625 -46.097656 43.148438 -46.734375 41.046875 -46.734375 C 38.941406 -46.734375 37.46875 -46.097656 36.625 -44.828125 C 35.78125 -43.566406 35.359375 -41.335938 35.359375 -38.140625 L 35.359375 -27.53125 C 35.359375 -24.164062 35.78125 -21.890625 36.625 -20.703125 C 37.46875 -19.523438 38.941406 -18.9375 41.046875 -18.9375 C 43.148438 -18.9375 44.625 -19.566406 45.46875 -20.828125 C 46.3125 -22.097656 46.734375 -24.332031 46.734375 -27.53125 Z M 46.734375 -27.53125 "/></g></g><g style="fill:#2c7a7b;fill-opacity:0.302;"><g transform="translate(767.354157, 329.615684)"><path style="stroke:none" d="M 79.953125 -44.328125 C 78.597656 -44.328125 77.4375 -43.820312 76.46875 -42.8125 C 75.5 -41.800781 75.015625 -40.285156 75.015625 -38.265625 L 75.015625 -3.40625 C 75.015625 -2.476562 74.675781 -1.675781 74 -1 C 73.332031 -0.332031 72.535156 0 71.609375 0 L 49.375 0 C 48.457031 0 47.660156 -0.332031 46.984375 -1 C 46.304688 -1.675781 45.96875 -2.476562 45.96875 -3.40625 L 45.96875 -37.390625 C 45.96875 -42.015625 44.285156 -44.328125 40.921875 -44.328125 C 39.484375 -44.328125 38.28125 -43.800781 37.3125 -42.75 C 36.351562 -41.695312 35.875 -40.242188 35.875 -38.390625 L 35.875 -3.40625 C 35.875 -2.476562 35.535156 -1.675781 34.859375 -1 C 34.179688 -0.332031 33.378906 0 32.453125 0 L 9.71875 0 C 8.789062 0 7.988281 -0.332031 7.3125 -1 C 6.644531 -1.675781 6.3125 -2.476562 6.3125 -3.40625 L 6.3125 -62.265625 C 6.3125 -63.191406 6.644531 -63.988281 7.3125 -64.65625 C 7.988281 -65.332031 8.789062 -65.671875 9.71875 -65.671875 L 30.5625 -65.671875 C 31.488281 -65.671875 32.285156 -65.332031 32.953125 -64.65625 C 33.628906 -63.988281 33.96875 -63.191406 33.96875 -62.265625 L 33.96875 -58.09375 C 35.65625 -60.28125 38.054688 -62.257812 41.171875 -64.03125 C 44.617188 -65.96875 48.492188 -66.9375 52.796875 -66.9375 C 62.054688 -66.9375 68.285156 -63.484375 71.484375 -56.578125 C 73.503906 -59.523438 76.28125 -61.988281 79.8125 -63.96875 C 83.351562 -65.945312 87.019531 -66.9375 90.8125 -66.9375 C 97.625 -66.9375 103.195312 -64.535156 107.53125 -59.734375 C 111.875 -54.941406 114.046875 -47.785156 114.046875 -38.265625 L 114.046875 -3.40625 C 114.046875 -2.476562 113.707031 -1.675781 113.03125 -1 C 112.363281 -0.332031 111.566406 0 110.640625 0 L 88.40625 0 C 87.476562 0 86.675781 -0.332031 86 -1 C 85.332031 -1.675781 85 -2.476562 85 -3.40625 L 85 -37.390625 C 85 -42.015625 83.316406 -44.328125 79.953125 -44.328125 Z M 79.953125 -44.328125 "/></g></g><g style="fill:#2c7a7b;fill-opacity:0.302;"><g transform="translate(886.448281, 329.615684)"><path style="stroke:none" d="M 73 -25.390625 L 35.359375 -25.390625 L 35.359375 -24.75 C 35.359375 -19.613281 37 -17.046875 40.28125 -17.046875 C 41.207031 -17.046875 42.34375 -17.71875 43.6875 -19.0625 C 45.039062 -20.414062 46.519531 -21.09375 48.125 -21.09375 L 71.984375 -21.09375 C 73.835938 -21.09375 74.765625 -20.164062 74.765625 -18.3125 C 74.765625 -14.1875 71.671875 -9.890625 65.484375 -5.421875 C 59.296875 -0.960938 50.914062 1.265625 40.34375 1.265625 C 29.78125 1.265625 21.148438 -1.488281 14.453125 -7 C 7.765625 -12.519531 4.421875 -20.125 4.421875 -29.8125 L 4.421875 -35.875 C 4.421875 -45.050781 7.828125 -52.519531 14.640625 -58.28125 C 21.460938 -64.050781 30.410156 -66.9375 41.484375 -66.9375 C 52.554688 -66.9375 61.144531 -63.691406 67.25 -57.203125 C 73.351562 -50.722656 76.40625 -42.515625 76.40625 -32.578125 L 76.40625 -28.796875 C 76.40625 -27.867188 76.066406 -27.066406 75.390625 -26.390625 C 74.722656 -25.722656 73.925781 -25.390625 73 -25.390625 Z M 45.46875 -41.671875 C 45.46875 -46.722656 43.78125 -49.25 40.40625 -49.25 C 37.039062 -49.25 35.359375 -46.722656 35.359375 -41.671875 L 35.359375 -41.171875 L 45.46875 -41.171875 Z M 45.46875 -41.671875 "/></g></g><g style="fill:#2c7a7b;fill-opacity:0.302;"><g transform="translate(966.64426, 329.615684)"><path style="stroke:none" d="M 41.296875 -18.1875 C 41.296875 -19.03125 41.085938 -19.703125 40.671875 -20.203125 C 39.578125 -21.554688 35.535156 -22.882812 28.546875 -24.1875 C 21.554688 -25.488281 15.890625 -27.800781 11.546875 -31.125 C 7.210938 -34.457031 5.046875 -39.113281 5.046875 -45.09375 C 5.046875 -51.070312 7.910156 -56.207031 13.640625 -60.5 C 19.367188 -64.789062 27.09375 -66.9375 36.8125 -66.9375 C 46.539062 -66.9375 54.519531 -64.914062 60.75 -60.875 C 66.976562 -56.832031 70.09375 -52.75 70.09375 -48.625 C 70.09375 -47.695312 69.816406 -46.894531 69.265625 -46.21875 C 68.722656 -45.550781 68.070312 -45.21875 67.3125 -45.21875 L 46.09375 -45.21875 C 44.832031 -45.21875 43.273438 -45.890625 41.421875 -47.234375 C 39.566406 -48.578125 38.175781 -49.25 37.25 -49.25 C 35.320312 -49.25 34.359375 -48.578125 34.359375 -47.234375 C 34.359375 -46.390625 34.566406 -45.71875 34.984375 -45.21875 C 36.078125 -43.945312 40.664062 -42.722656 48.75 -41.546875 C 56.832031 -40.367188 62.875 -37.78125 66.875 -33.78125 C 70.875 -29.78125 72.875 -25.335938 72.875 -20.453125 C 72.875 -13.640625 69.800781 -8.296875 63.65625 -4.421875 C 57.507812 -0.546875 48.796875 1.390625 37.515625 1.390625 C 31.535156 1.390625 26.226562 0.71875 21.59375 -0.625 C 16.96875 -1.976562 13.429688 -3.664062 10.984375 -5.6875 C 6.179688 -9.644531 3.78125 -13.347656 3.78125 -16.796875 C 3.78125 -17.722656 4.078125 -18.519531 4.671875 -19.1875 C 5.265625 -19.863281 5.976562 -20.203125 6.8125 -20.203125 L 28.796875 -20.203125 C 29.972656 -20.203125 31.507812 -19.550781 33.40625 -18.25 C 35.300781 -16.945312 37.085938 -16.296875 38.765625 -16.296875 C 40.453125 -16.296875 41.296875 -16.925781 41.296875 -18.1875 Z M 41.296875 -18.1875 "/></g></g><g style="fill:#2c7a7b;fill-opacity:0.502;"><g transform="translate(24.548531, 326.230159)"><path style="stroke:none" d="M 38.515625 -54.8125 L 38.515625 -33.59375 C 38.515625 -26.769531 41.628906 -23.359375 47.859375 -23.359375 C 52.660156 -23.359375 55.820312 -25.632812 57.34375 -30.1875 C 57.757812 -31.613281 58.28125 -32.578125 58.90625 -33.078125 C 59.539062 -33.585938 60.578125 -33.84375 62.015625 -33.84375 L 87.78125 -33.84375 C 88.53125 -33.84375 89.179688 -33.566406 89.734375 -33.015625 C 90.285156 -32.472656 90.5625 -31.820312 90.5625 -31.0625 C 90.5625 -23.738281 88.453125 -17.59375 84.234375 -12.625 C 76.492188 -3.363281 64.414062 1.265625 48 1.265625 C 35.113281 1.265625 24.835938 -1.570312 17.171875 -7.25 C 9.515625 -12.9375 5.6875 -21.675781 5.6875 -33.46875 L 5.6875 -54.9375 C 5.6875 -66.46875 9.597656 -75.140625 17.421875 -80.953125 C 25.253906 -86.765625 35.445312 -89.671875 48 -89.671875 C 64.414062 -89.671875 76.492188 -85.039062 84.234375 -75.78125 C 88.453125 -70.8125 90.5625 -64.664062 90.5625 -57.34375 C 90.5625 -56.582031 90.285156 -55.925781 89.734375 -55.375 C 89.179688 -54.832031 88.53125 -54.5625 87.78125 -54.5625 L 62.015625 -54.5625 C 60.660156 -54.5625 59.664062 -54.8125 59.03125 -55.3125 C 58.40625 -55.820312 57.84375 -56.789062 57.34375 -58.21875 C 55.738281 -62.769531 52.578125 -65.046875 47.859375 -65.046875 C 41.628906 -65.046875 38.515625 -61.632812 38.515625 -54.8125 Z M 38.515625 -54.8125 "/></g></g><g style="fill:#2c7a7b;fill-opacity:0.502;"><g transform="translate(118.257818, 326.230159)"><path style="stroke:none" d="M 4.421875 -28.546875 L 4.421875 -37.125 C 4.421875 -46.726562 7.828125 -54.097656 14.640625 -59.234375 C 21.460938 -64.367188 30.265625 -66.9375 41.046875 -66.9375 C 51.828125 -66.9375 60.625 -64.367188 67.4375 -59.234375 C 74.257812 -54.097656 77.671875 -46.726562 77.671875 -37.125 L 77.671875 -28.546875 C 77.671875 -18.859375 74.382812 -11.46875 67.8125 -6.375 C 61.25 -1.28125 52.328125 1.265625 41.046875 1.265625 C 29.765625 1.265625 20.835938 -1.28125 14.265625 -6.375 C 7.703125 -11.46875 4.421875 -18.859375 4.421875 -28.546875 Z M 46.734375 -27.53125 L 46.734375 -38.140625 C 46.734375 -41.335938 46.3125 -43.566406 45.46875 -44.828125 C 44.625 -46.097656 43.148438 -46.734375 41.046875 -46.734375 C 38.941406 -46.734375 37.46875 -46.097656 36.625 -44.828125 C 35.78125 -43.566406 35.359375 -41.335938 35.359375 -38.140625 L 35.359375 -27.53125 C 35.359375 -24.164062 35.78125 -21.890625 36.625 -20.703125 C 37.46875 -19.523438 38.941406 -18.9375 41.046875 -18.9375 C 43.148438 -18.9375 44.625 -19.566406 45.46875 -20.828125 C 46.3125 -22.097656 46.734375 -24.332031 46.734375 -27.53125 Z M 46.734375 -27.53125 "/></g></g><g style="fill:#2c7a7b;fill-opacity:0.502;"><g transform="translate(199.716686, 326.230159)"><path style="stroke:none" d="M 4.421875 -18.8125 C 4.421875 -30.1875 13.640625 -37.472656 32.078125 -40.671875 L 45.46875 -42.8125 C 45.46875 -45.34375 45.253906 -47.046875 44.828125 -47.921875 C 44.410156 -48.804688 43.421875 -49.25 41.859375 -49.25 C 40.304688 -49.25 38.769531 -48.578125 37.25 -47.234375 C 35.738281 -45.890625 34.3125 -45.21875 32.96875 -45.21875 L 11.5 -45.21875 C 9.644531 -45.21875 8.71875 -46.117188 8.71875 -47.921875 C 8.71875 -49.734375 9.367188 -51.671875 10.671875 -53.734375 C 11.972656 -55.796875 13.863281 -57.835938 16.34375 -59.859375 C 18.832031 -61.878906 22.328125 -63.5625 26.828125 -64.90625 C 31.335938 -66.257812 36.375 -66.9375 41.9375 -66.9375 C 53.21875 -66.9375 61.675781 -64.578125 67.3125 -59.859375 C 72.957031 -55.148438 75.78125 -48.414062 75.78125 -39.65625 L 75.78125 -3.40625 C 75.78125 -2.476562 75.441406 -1.675781 74.765625 -1 C 74.085938 -0.332031 73.289062 0 72.375 0 L 50.265625 0 C 49.335938 0 48.535156 -0.332031 47.859375 -1 C 47.191406 -1.675781 46.859375 -2.476562 46.859375 -3.40625 L 46.859375 -6.953125 C 42.898438 -1.472656 37.128906 1.265625 29.546875 1.265625 C 21.972656 1.265625 15.890625 -0.648438 11.296875 -4.484375 C 6.710938 -8.316406 4.421875 -13.09375 4.421875 -18.8125 Z M 37.640625 -17.421875 C 43.109375 -17.421875 45.84375 -20.707031 45.84375 -27.28125 L 38.390625 -25.640625 C 34.691406 -24.796875 32.84375 -23.238281 32.84375 -20.96875 C 32.84375 -19.957031 33.257812 -19.113281 34.09375 -18.4375 C 34.9375 -17.757812 36.117188 -17.421875 37.640625 -17.421875 Z M 37.640625 -17.421875 "/></g></g><g style="fill:#2c7a7b;fill-opacity:0.502;"><g transform="translate(280.544104, 326.230159)"><path style="stroke:none" d="M 41.296875 -18.1875 C 41.296875 -19.03125 41.085938 -19.703125 40.671875 -20.203125 C 39.578125 -21.554688 35.535156 -22.882812 28.546875 -24.1875 C 21.554688 -25.488281 15.890625 -27.800781 11.546875 -31.125 C 7.210938 -34.457031 5.046875 -39.113281 5.046875 -45.09375 C 5.046875 -51.070312 7.910156 -56.207031 13.640625 -60.5 C 19.367188 -64.789062 27.09375 -66.9375 36.8125 -66.9375 C 46.539062 -66.9375 54.519531 -64.914062 60.75 -60.875 C 66.976562 -56.832031 70.09375 -52.75 70.09375 -48.625 C 70.09375 -47.695312 69.816406 -46.894531 69.265625 -46.21875 C 68.722656 -45.550781 68.070312 -45.21875 67.3125 -45.21875 L 46.09375 -45.21875 C 44.832031 -45.21875 43.273438 -45.890625 41.421875 -47.234375 C 39.566406 -48.578125 38.175781 -49.25 37.25 -49.25 C 35.320312 -49.25 34.359375 -48.578125 34.359375 -47.234375 C 34.359375 -46.390625 34.566406 -45.71875 34.984375 -45.21875 C 36.078125 -43.945312 40.664062 -42.722656 48.75 -41.546875 C 56.832031 -40.367188 62.875 -37.78125 66.875 -33.78125 C 70.875 -29.78125 72.875 -25.335938 72.875 -20.453125 C 72.875 -13.640625 69.800781 -8.296875 63.65625 -4.421875 C 57.507812 -0.546875 48.796875 1.390625 37.515625 1.390625 C 31.535156 1.390625 26.226562 0.71875 21.59375 -0.625 C 16.96875 -1.976562 13.429688 -3.664062 10.984375 -5.6875 C 6.179688 -9.644531 3.78125 -13.347656 3.78125 -16.796875 C 3.78125 -17.722656 4.078125 -18.519531 4.671875 -19.1875 C 5.265625 -19.863281 5.976562 -20.203125 6.8125 -20.203125 L 28.796875 -20.203125 C 29.972656 -20.203125 31.507812 -19.550781 33.40625 -18.25 C 35.300781 -16.945312 37.085938 -16.296875 38.765625 -16.296875 C 40.453125 -16.296875 41.296875 -16.925781 41.296875 -18.1875 Z M 41.296875 -18.1875 "/></g></g><g style="fill:#2c7a7b;fill-opacity:0.502;"><g transform="translate(356.193483, 326.230159)"><path style="stroke:none" d="M 44.203125 -43.578125 L 44.203125 -29.6875 C 44.203125 -25.46875 46.015625 -23.359375 49.640625 -23.359375 L 61.125 -23.359375 C 62.050781 -23.359375 62.847656 -23.019531 63.515625 -22.34375 C 64.191406 -21.675781 64.53125 -20.878906 64.53125 -19.953125 L 64.53125 -3.40625 C 64.53125 -2.476562 64.191406 -1.675781 63.515625 -1 C 62.847656 -0.332031 62.050781 0 61.125 0 L 46.859375 0 C 25.804688 0 15.28125 -9.050781 15.28125 -27.15625 L 15.28125 -43.578125 L 5.296875 -43.578125 C 4.378906 -43.578125 3.582031 -43.910156 2.90625 -44.578125 C 2.226562 -45.253906 1.890625 -46.054688 1.890625 -46.984375 L 1.890625 -62.265625 C 1.890625 -63.191406 2.226562 -63.988281 2.90625 -64.65625 C 3.582031 -65.332031 4.378906 -65.671875 5.296875 -65.671875 L 15.28125 -65.671875 L 15.28125 -86.265625 C 15.28125 -87.191406 15.613281 -87.988281 16.28125 -88.65625 C 16.957031 -89.332031 17.757812 -89.671875 18.6875 -89.671875 L 40.796875 -89.671875 C 41.722656 -89.671875 42.519531 -89.332031 43.1875 -88.65625 C 43.863281 -87.988281 44.203125 -87.191406 44.203125 -86.265625 L 44.203125 -65.671875 L 60.125 -65.671875 C 61.039062 -65.671875 61.835938 -65.332031 62.515625 -64.65625 C 63.191406 -63.988281 63.53125 -63.191406 63.53125 -62.265625 L 63.53125 -46.984375 C 63.53125 -46.054688 63.191406 -45.253906 62.515625 -44.578125 C 61.835938 -43.910156 61.039062 -43.578125 60.125 -43.578125 Z M 44.203125 -43.578125 "/></g></g><g style="fill:#2c7a7b;fill-opacity:0.502;"><g transform="translate(422.623501, 326.230159)"><path style="stroke:none" d="M 4.421875 -18.8125 C 4.421875 -30.1875 13.640625 -37.472656 32.078125 -40.671875 L 45.46875 -42.8125 C 45.46875 -45.34375 45.253906 -47.046875 44.828125 -47.921875 C 44.410156 -48.804688 43.421875 -49.25 41.859375 -49.25 C 40.304688 -49.25 38.769531 -48.578125 37.25 -47.234375 C 35.738281 -45.890625 34.3125 -45.21875 32.96875 -45.21875 L 11.5 -45.21875 C 9.644531 -45.21875 8.71875 -46.117188 8.71875 -47.921875 C 8.71875 -49.734375 9.367188 -51.671875 10.671875 -53.734375 C 11.972656 -55.796875 13.863281 -57.835938 16.34375 -59.859375 C 18.832031 -61.878906 22.328125 -63.5625 26.828125 -64.90625 C 31.335938 -66.257812 36.375 -66.9375 41.9375 -66.9375 C 53.21875 -66.9375 61.675781 -64.578125 67.3125 -59.859375 C 72.957031 -55.148438 75.78125 -48.414062 75.78125 -39.65625 L 75.78125 -3.40625 C 75.78125 -2.476562 75.441406 -1.675781 74.765625 -1 C 74.085938 -0.332031 73.289062 0 72.375 0 L 50.265625 0 C 49.335938 0 48.535156 -0.332031 47.859375 -1 C 47.191406 -1.675781 46.859375 -2.476562 46.859375 -3.40625 L 46.859375 -6.953125 C 42.898438 -1.472656 37.128906 1.265625 29.546875 1.265625 C 21.972656 1.265625 15.890625 -0.648438 11.296875 -4.484375 C 6.710938 -8.316406 4.421875 -13.09375 4.421875 -18.8125 Z M 37.640625 -17.421875 C 43.109375 -17.421875 45.84375 -20.707031 45.84375 -27.28125 L 38.390625 -25.640625 C 34.691406 -24.796875 32.84375 -23.238281 32.84375 -20.96875 C 32.84375 -19.957031 33.257812 -19.113281 34.09375 -18.4375 C 34.9375 -17.757812 36.117188 -17.421875 37.640625 -17.421875 Z M 37.640625 -17.421875 "/></g></g><g style="fill:#2c7a7b;fill-opacity:0.502;"><g transform="translate(503.450919, 326.230159)"><path style="stroke:none" d="M 32.328125 0 L 9.71875 0 C 8.789062 0 7.988281 -0.332031 7.3125 -1 C 6.644531 -1.675781 6.3125 -2.476562 6.3125 -3.40625 L 6.3125 -86.265625 C 6.3125 -87.191406 6.644531 -87.988281 7.3125 -88.65625 C 7.988281 -89.332031 8.789062 -89.671875 9.71875 -89.671875 L 32.328125 -89.671875 C 33.253906 -89.671875 34.050781 -89.332031 34.71875 -88.65625 C 35.394531 -87.988281 35.734375 -87.191406 35.734375 -86.265625 L 35.734375 -3.40625 C 35.734375 -2.476562 35.394531 -1.675781 34.71875 -1 C 34.050781 -0.332031 33.253906 0 32.328125 0 Z M 32.328125 0 "/></g></g><g style="fill:#2c7a7b;fill-opacity:0.502;"><g transform="translate(544.874958, 326.230159)"><path style="stroke:none" d=""/></g></g><g style="fill:#2c7a7b;fill-opacity:0.502;"><g transform="translate(580.86841, 326.230159)"><path style="stroke:none" d="M 63.65625 -88.40625 L 88.40625 -88.40625 C 89.332031 -88.40625 90.128906 -88.066406 90.796875 -87.390625 C 91.472656 -86.722656 91.8125 -85.925781 91.8125 -85 L 91.8125 -3.40625 C 91.8125 -2.476562 91.472656 -1.675781 90.796875 -1 C 90.128906 -0.332031 89.332031 0 88.40625 0 L 63.65625 0 C 62.726562 0 61.925781 -0.332031 61.25 -1 C 60.582031 -1.675781 60.25 -2.476562 60.25 -3.40625 L 60.25 -30.6875 L 39.78125 -30.6875 L 39.78125 -3.40625 C 39.78125 -2.476562 39.441406 -1.675781 38.765625 -1 C 38.097656 -0.332031 37.300781 0 36.375 0 L 11.625 0 C 10.695312 0 9.894531 -0.3125 9.21875 -0.9375 C 8.539062 -1.570312 8.203125 -2.394531 8.203125 -3.40625 L 8.203125 -85 C 8.203125 -85.925781 8.539062 -86.722656 9.21875 -87.390625 C 9.894531 -88.066406 10.695312 -88.40625 11.625 -88.40625 L 36.375 -88.40625 C 37.300781 -88.40625 38.097656 -88.066406 38.765625 -87.390625 C 39.441406 -86.722656 39.78125 -85.925781 39.78125 -85 L 39.78125 -58.46875 L 60.25 -58.46875 L 60.25 -85 C 60.25 -85.925781 60.582031 -86.722656 61.25 -87.390625 C 61.925781 -88.066406 62.726562 -88.40625 63.65625 -88.40625 Z M 63.65625 -88.40625 "/></g></g><g style="fill:#2c7a7b;fill-opacity:0.502;"><g transform="translate(680.260844, 326.230159)"><path style="stroke:none" d="M 4.421875 -28.546875 L 4.421875 -37.125 C 4.421875 -46.726562 7.828125 -54.097656 14.640625 -59.234375 C 21.460938 -64.367188 30.265625 -66.9375 41.046875 -66.9375 C 51.828125 -66.9375 60.625 -64.367188 67.4375 -59.234375 C 74.257812 -54.097656 77.671875 -46.726562 77.671875 -37.125 L 77.671875 -28.546875 C 77.671875 -18.859375 74.382812 -11.46875 67.8125 -6.375 C 61.25 -1.28125 52.328125 1.265625 41.046875 1.265625 C 29.765625 1.265625 20.835938 -1.28125 14.265625 -6.375 C 7.703125 -11.46875 4.421875 -18.859375 4.421875 -28.546875 Z M 46.734375 -27.53125 L 46.734375 -38.140625 C 46.734375 -41.335938 46.3125 -43.566406 45.46875 -44.828125 C 44.625 -46.097656 43.148438 -46.734375 41.046875 -46.734375 C 38.941406 -46.734375 37.46875 -46.097656 36.625 -44.828125 C 35.78125 -43.566406 35.359375 -41.335938 35.359375 -38.140625 L 35.359375 -27.53125 C 35.359375 -24.164062 35.78125 -21.890625 36.625 -20.703125 C 37.46875 -19.523438 38.941406 -18.9375 41.046875 -18.9375 C 43.148438 -18.9375 44.625 -19.566406 45.46875 -20.828125 C 46.3125 -22.097656 46.734375 -24.332031 46.734375 -27.53125 Z M 46.734375 -27.53125 "/></g></g><g style="fill:#2c7a7b;fill-opacity:0.502;"><g transform="translate(761.7197, 326.230159)"><path style="stroke:none" d="M 79.953125 -44.328125 C 78.597656 -44.328125 77.4375 -43.820312 76.46875 -42.8125 C 75.5 -41.800781 75.015625 -40.285156 75.015625 -38.265625 L 75.015625 -3.40625 C 75.015625 -2.476562 74.675781 -1.675781 74 -1 C 73.332031 -0.332031 72.535156 0 71.609375 0 L 49.375 0 C 48.457031 0 47.660156 -0.332031 46.984375 -1 C 46.304688 -1.675781 45.96875 -2.476562 45.96875 -3.40625 L 45.96875 -37.390625 C 45.96875 -42.015625 44.285156 -44.328125 40.921875 -44.328125 C 39.484375 -44.328125 38.28125 -43.800781 37.3125 -42.75 C 36.351562 -41.695312 35.875 -40.242188 35.875 -38.390625 L 35.875 -3.40625 C 35.875 -2.476562 35.535156 -1.675781 34.859375 -1 C 34.179688 -0.332031 33.378906 0 32.453125 0 L 9.71875 0 C 8.789062 0 7.988281 -0.332031 7.3125 -1 C 6.644531 -1.675781 6.3125 -2.476562 6.3125 -3.40625 L 6.3125 -62.265625 C 6.3125 -63.191406 6.644531 -63.988281 7.3125 -64.65625 C 7.988281 -65.332031 8.789062 -65.671875 9.71875 -65.671875 L 30.5625 -65.671875 C 31.488281 -65.671875 32.285156 -65.332031 32.953125 -64.65625 C 33.628906 -63.988281 33.96875 -63.191406 33.96875 -62.265625 L 33.96875 -58.09375 C 35.65625 -60.28125 38.054688 -62.257812 41.171875 -64.03125 C 44.617188 -65.96875 48.492188 -66.9375 52.796875 -66.9375 C 62.054688 -66.9375 68.285156 -63.484375 71.484375 -56.578125 C 73.503906 -59.523438 76.28125 -61.988281 79.8125 -63.96875 C 83.351562 -65.945312 87.019531 -66.9375 90.8125 -66.9375 C 97.625 -66.9375 103.195312 -64.535156 107.53125 -59.734375 C 111.875 -54.941406 114.046875 -47.785156 114.046875 -38.265625 L 114.046875 -3.40625 C 114.046875 -2.476562 113.707031 -1.675781 113.03125 -1 C 112.363281 -0.332031 111.566406 0 110.640625 0 L 88.40625 0 C 87.476562 0 86.675781 -0.332031 86 -1 C 85.332031 -1.675781 85 -2.476562 85 -3.40625 L 85 -37.390625 C 85 -42.015625 83.316406 -44.328125 79.953125 -44.328125 Z M 79.953125 -44.328125 "/></g></g><g style="fill:#2c7a7b;fill-opacity:0.502;"><g transform="translate(880.813824, 326.230159)"><path style="stroke:none" d="M 73 -25.390625 L 35.359375 -25.390625 L 35.359375 -24.75 C 35.359375 -19.613281 37 -17.046875 40.28125 -17.046875 C 41.207031 -17.046875 42.34375 -17.71875 43.6875 -19.0625 C 45.039062 -20.414062 46.519531 -21.09375 48.125 -21.09375 L 71.984375 -21.09375 C 73.835938 -21.09375 74.765625 -20.164062 74.765625 -18.3125 C 74.765625 -14.1875 71.671875 -9.890625 65.484375 -5.421875 C 59.296875 -0.960938 50.914062 1.265625 40.34375 1.265625 C 29.78125 1.265625 21.148438 -1.488281 14.453125 -7 C 7.765625 -12.519531 4.421875 -20.125 4.421875 -29.8125 L 4.421875 -35.875 C 4.421875 -45.050781 7.828125 -52.519531 14.640625 -58.28125 C 21.460938 -64.050781 30.410156 -66.9375 41.484375 -66.9375 C 52.554688 -66.9375 61.144531 -63.691406 67.25 -57.203125 C 73.351562 -50.722656 76.40625 -42.515625 76.40625 -32.578125 L 76.40625 -28.796875 C 76.40625 -27.867188 76.066406 -27.066406 75.390625 -26.390625 C 74.722656 -25.722656 73.925781 -25.390625 73 -25.390625 Z M 45.46875 -41.671875 C 45.46875 -46.722656 43.78125 -49.25 40.40625 -49.25 C 37.039062 -49.25 35.359375 -46.722656 35.359375 -41.671875 L 35.359375 -41.171875 L 45.46875 -41.171875 Z M 45.46875 -41.671875 "/></g></g><g style="fill:#2c7a7b;fill-opacity:0.502;"><g transform="translate(961.009803, 326.230159)"><path style="stroke:none" d="M 41.296875 -18.1875 C 41.296875 -19.03125 41.085938 -19.703125 40.671875 -20.203125 C 39.578125 -21.554688 35.535156 -22.882812 28.546875 -24.1875 C 21.554688 -25.488281 15.890625 -27.800781 11.546875 -31.125 C 7.210938 -34.457031 5.046875 -39.113281 5.046875 -45.09375 C 5.046875 -51.070312 7.910156 -56.207031 13.640625 -60.5 C 19.367188 -64.789062 27.09375 -66.9375 36.8125 -66.9375 C 46.539062 -66.9375 54.519531 -64.914062 60.75 -60.875 C 66.976562 -56.832031 70.09375 -52.75 70.09375 -48.625 C 70.09375 -47.695312 69.816406 -46.894531 69.265625 -46.21875 C 68.722656 -45.550781 68.070312 -45.21875 67.3125 -45.21875 L 46.09375 -45.21875 C 44.832031 -45.21875 43.273438 -45.890625 41.421875 -47.234375 C 39.566406 -48.578125 38.175781 -49.25 37.25 -49.25 C 35.320312 -49.25 34.359375 -48.578125 34.359375 -47.234375 C 34.359375 -46.390625 34.566406 -45.71875 34.984375 -45.21875 C 36.078125 -43.945312 40.664062 -42.722656 48.75 -41.546875 C 56.832031 -40.367188 62.875 -37.78125 66.875 -33.78125 C 70.875 -29.78125 72.875 -25.335938 72.875 -20.453125 C 72.875 -13.640625 69.800781 -8.296875 63.65625 -4.421875 C 57.507812 -0.546875 48.796875 1.390625 37.515625 1.390625 C 31.535156 1.390625 26.226562 0.71875 21.59375 -0.625 C 16.96875 -1.976562 13.429688 -3.664062 10.984375 -5.6875 C 6.179688 -9.644531 3.78125 -13.347656 3.78125 -16.796875 C 3.78125 -17.722656 4.078125 -18.519531 4.671875 -19.1875 C 5.265625 -19.863281 5.976562 -20.203125 6.8125 -20.203125 L 28.796875 -20.203125 C 29.972656 -20.203125 31.507812 -19.550781 33.40625 -18.25 C 35.300781 -16.945312 37.085938 -16.296875 38.765625 -16.296875 C 40.453125 -16.296875 41.296875 -16.925781 41.296875 -18.1875 Z M 41.296875 -18.1875 "/></g></g><g style="fill:#917d51;fill-opacity:1;"><g transform="translate(18.914074, 322.844635)"><path style="stroke:none" d="M 38.515625 -54.8125 L 38.515625 -33.59375 C 38.515625 -26.769531 41.628906 -23.359375 47.859375 -23.359375 C 52.660156 -23.359375 55.820312 -25.632812 57.34375 -30.1875 C 57.757812 -31.613281 58.28125 -32.578125 58.90625 -33.078125 C 59.539062 -33.585938 60.578125 -33.84375 62.015625 -33.84375 L 87.78125 -33.84375 C 88.53125 -33.84375 89.179688 -33.566406 89.734375 -33.015625 C 90.285156 -32.472656 90.5625 -31.820312 90.5625 -31.0625 C 90.5625 -23.738281 88.453125 -17.59375 84.234375 -12.625 C 76.492188 -3.363281 64.414062 1.265625 48 1.265625 C 35.113281 1.265625 24.835938 -1.570312 17.171875 -7.25 C 9.515625 -12.9375 5.6875 -21.675781 5.6875 -33.46875 L 5.6875 -54.9375 C 5.6875 -66.46875 9.597656 -75.140625 17.421875 -80.953125 C 25.253906 -86.765625 35.445312 -89.671875 48 -89.671875 C 64.414062 -89.671875 76.492188 -85.039062 84.234375 -75.78125 C 88.453125 -70.8125 90.5625 -64.664062 90.5625 -57.34375 C 90.5625 -56.582031 90.285156 -55.925781 89.734375 -55.375 C 89.179688 -54.832031 88.53125 -54.5625 87.78125 -54.5625 L 62.015625 -54.5625 C 60.660156 -54.5625 59.664062 -54.8125 59.03125 -55.3125 C 58.40625 -55.820312 57.84375 -56.789062 57.34375 -58.21875 C 55.738281 -62.769531 52.578125 -65.046875 47.859375 -65.046875 C 41.628906 -65.046875 38.515625 -61.632812 38.515625 -54.8125 Z M 38.515625 -54.8125 "/></g></g><g style="fill:#917d51;fill-opacity:1;"><g transform="translate(112.623361, 322.844635)"><path style="stroke:none" d="M 4.421875 -28.546875 L 4.421875 -37.125 C 4.421875 -46.726562 7.828125 -54.097656 14.640625 -59.234375 C 21.460938 -64.367188 30.265625 -66.9375 41.046875 -66.9375 C 51.828125 -66.9375 60.625 -64.367188 67.4375 -59.234375 C 74.257812 -54.097656 77.671875 -46.726562 77.671875 -37.125 L 77.671875 -28.546875 C 77.671875 -18.859375 74.382812 -11.46875 67.8125 -6.375 C 61.25 -1.28125 52.328125 1.265625 41.046875 1.265625 C 29.765625 1.265625 20.835938 -1.28125 14.265625 -6.375 C 7.703125 -11.46875 4.421875 -18.859375 4.421875 -28.546875 Z M 46.734375 -27.53125 L 46.734375 -38.140625 C 46.734375 -41.335938 46.3125 -43.566406 45.46875 -44.828125 C 44.625 -46.097656 43.148438 -46.734375 41.046875 -46.734375 C 38.941406 -46.734375 37.46875 -46.097656 36.625 -44.828125 C 35.78125 -43.566406 35.359375 -41.335938 35.359375 -38.140625 L 35.359375 -27.53125 C 35.359375 -24.164062 35.78125 -21.890625 36.625 -20.703125 C 37.46875 -19.523438 38.941406 -18.9375 41.046875 -18.9375 C 43.148438 -18.9375 44.625 -19.566406 45.46875 -20.828125 C 46.3125 -22.097656 46.734375 -24.332031 46.734375 -27.53125 Z M 46.734375 -27.53125 "/></g></g><g style="fill:#917d51;fill-opacity:1;"><g transform="translate(194.082229, 322.844635)"><path style="stroke:none" d="M 4.421875 -18.8125 C 4.421875 -30.1875 13.640625 -37.472656 32.078125 -40.671875 L 45.46875 -42.8125 C 45.46875 -45.34375 45.253906 -47.046875 44.828125 -47.921875 C 44.410156 -48.804688 43.421875 -49.25 41.859375 -49.25 C 40.304688 -49.25 38.769531 -48.578125 37.25 -47.234375 C 35.738281 -45.890625 34.3125 -45.21875 32.96875 -45.21875 L 11.5 -45.21875 C 9.644531 -45.21875 8.71875 -46.117188 8.71875 -47.921875 C 8.71875 -49.734375 9.367188 -51.671875 10.671875 -53.734375 C 11.972656 -55.796875 13.863281 -57.835938 16.34375 -59.859375 C 18.832031 -61.878906 22.328125 -63.5625 26.828125 -64.90625 C 31.335938 -66.257812 36.375 -66.9375 41.9375 -66.9375 C 53.21875 -66.9375 61.675781 -64.578125 67.3125 -59.859375 C 72.957031 -55.148438 75.78125 -48.414062 75.78125 -39.65625 L 75.78125 -3.40625 C 75.78125 -2.476562 75.441406 -1.675781 74.765625 -1 C 74.085938 -0.332031 73.289062 0 72.375 0 L 50.265625 0 C 49.335938 0 48.535156 -0.332031 47.859375 -1 C 47.191406 -1.675781 46.859375 -2.476562 46.859375 -3.40625 L 46.859375 -6.953125 C 42.898438 -1.472656 37.128906 1.265625 29.546875 1.265625 C 21.972656 1.265625 15.890625 -0.648438 11.296875 -4.484375 C 6.710938 -8.316406 4.421875 -13.09375 4.421875 -18.8125 Z M 37.640625 -17.421875 C 43.109375 -17.421875 45.84375 -20.707031 45.84375 -27.28125 L 38.390625 -25.640625 C 34.691406 -24.796875 32.84375 -23.238281 32.84375 -20.96875 C 32.84375 -19.957031 33.257812 -19.113281 34.09375 -18.4375 C 34.9375 -17.757812 36.117188 -17.421875 37.640625 -17.421875 Z M 37.640625 -17.421875 "/></g></g><g style="fill:#917d51;fill-opacity:1;"><g transform="translate(274.909647, 322.844635)"><path style="stroke:none" d="M 41.296875 -18.1875 C 41.296875 -19.03125 41.085938 -19.703125 40.671875 -20.203125 C 39.578125 -21.554688 35.535156 -22.882812 28.546875 -24.1875 C 21.554688 -25.488281 15.890625 -27.800781 11.546875 -31.125 C 7.210938 -34.457031 5.046875 -39.113281 5.046875 -45.09375 C 5.046875 -51.070312 7.910156 -56.207031 13.640625 -60.5 C 19.367188 -64.789062 27.09375 -66.9375 36.8125 -66.9375 C 46.539062 -66.9375 54.519531 -64.914062 60.75 -60.875 C 66.976562 -56.832031 70.09375 -52.75 70.09375 -48.625 C 70.09375 -47.695312 69.816406 -46.894531 69.265625 -46.21875 C 68.722656 -45.550781 68.070312 -45.21875 67.3125 -45.21875 L 46.09375 -45.21875 C 44.832031 -45.21875 43.273438 -45.890625 41.421875 -47.234375 C 39.566406 -48.578125 38.175781 -49.25 37.25 -49.25 C 35.320312 -49.25 34.359375 -48.578125 34.359375 -47.234375 C 34.359375 -46.390625 34.566406 -45.71875 34.984375 -45.21875 C 36.078125 -43.945312 40.664062 -42.722656 48.75 -41.546875 C 56.832031 -40.367188 62.875 -37.78125 66.875 -33.78125 C 70.875 -29.78125 72.875 -25.335938 72.875 -20.453125 C 72.875 -13.640625 69.800781 -8.296875 63.65625 -4.421875 C 57.507812 -0.546875 48.796875 1.390625 37.515625 1.390625 C 31.535156 1.390625 26.226562 0.71875 21.59375 -0.625 C 16.96875 -1.976562 13.429688 -3.664062 10.984375 -5.6875 C 6.179688 -9.644531 3.78125 -13.347656 3.78125 -16.796875 C 3.78125 -17.722656 4.078125 -18.519531 4.671875 -19.1875 C 5.265625 -19.863281 5.976562 -20.203125 6.8125 -20.203125 L 28.796875 -20.203125 C 29.972656 -20.203125 31.507812 -19.550781 33.40625 -18.25 C 35.300781 -16.945312 37.085938 -16.296875 38.765625 -16.296875 C 40.453125 -16.296875 41.296875 -16.925781 41.296875 -18.1875 Z M 41.296875 -18.1875 "/></g></g><g style="fill:#917d51;fill-opacity:1;"><g transform="translate(350.559026, 322.844635)"><path style="stroke:none" d="M 44.203125 -43.578125 L 44.203125 -29.6875 C 44.203125 -25.46875 46.015625 -23.359375 49.640625 -23.359375 L 61.125 -23.359375 C 62.050781 -23.359375 62.847656 -23.019531 63.515625 -22.34375 C 64.191406 -21.675781 64.53125 -20.878906 64.53125 -19.953125 L 64.53125 -3.40625 C 64.53125 -2.476562 64.191406 -1.675781 63.515625 -1 C 62.847656 -0.332031 62.050781 0 61.125 0 L 46.859375 0 C 25.804688 0 15.28125 -9.050781 15.28125 -27.15625 L 15.28125 -43.578125 L 5.296875 -43.578125 C 4.378906 -43.578125 3.582031 -43.910156 2.90625 -44.578125 C 2.226562 -45.253906 1.890625 -46.054688 1.890625 -46.984375 L 1.890625 -62.265625 C 1.890625 -63.191406 2.226562 -63.988281 2.90625 -64.65625 C 3.582031 -65.332031 4.378906 -65.671875 5.296875 -65.671875 L 15.28125 -65.671875 L 15.28125 -86.265625 C 15.28125 -87.191406 15.613281 -87.988281 16.28125 -88.65625 C 16.957031 -89.332031 17.757812 -89.671875 18.6875 -89.671875 L 40.796875 -89.671875 C 41.722656 -89.671875 42.519531 -89.332031 43.1875 -88.65625 C 43.863281 -87.988281 44.203125 -87.191406 44.203125 -86.265625 L 44.203125 -65.671875 L 60.125 -65.671875 C 61.039062 -65.671875 61.835938 -65.332031 62.515625 -64.65625 C 63.191406 -63.988281 63.53125 -63.191406 63.53125 -62.265625 L 63.53125 -46.984375 C 63.53125 -46.054688 63.191406 -45.253906 62.515625 -44.578125 C 61.835938 -43.910156 61.039062 -43.578125 60.125 -43.578125 Z M 44.203125 -43.578125 "/></g></g><g style="fill:#917d51;fill-opacity:1;"><g transform="translate(416.989044, 322.844635)"><path style="stroke:none" d="M 4.421875 -18.8125 C 4.421875 -30.1875 13.640625 -37.472656 32.078125 -40.671875 L 45.46875 -42.8125 C 45.46875 -45.34375 45.253906 -47.046875 44.828125 -47.921875 C 44.410156 -48.804688 43.421875 -49.25 41.859375 -49.25 C 40.304688 -49.25 38.769531 -48.578125 37.25 -47.234375 C 35.738281 -45.890625 34.3125 -45.21875 32.96875 -45.21875 L 11.5 -45.21875 C 9.644531 -45.21875 8.71875 -46.117188 8.71875 -47.921875 C 8.71875 -49.734375 9.367188 -51.671875 10.671875 -53.734375 C 11.972656 -55.796875 13.863281 -57.835938 16.34375 -59.859375 C 18.832031 -61.878906 22.328125 -63.5625 26.828125 -64.90625 C 31.335938 -66.257812 36.375 -66.9375 41.9375 -66.9375 C 53.21875 -66.9375 61.675781 -64.578125 67.3125 -59.859375 C 72.957031 -55.148438 75.78125 -48.414062 75.78125 -39.65625 L 75.78125 -3.40625 C 75.78125 -2.476562 75.441406 -1.675781 74.765625 -1 C 74.085938 -0.332031 73.289062 0 72.375 0 L 50.265625 0 C 49.335938 0 48.535156 -0.332031 47.859375 -1 C 47.191406 -1.675781 46.859375 -2.476562 46.859375 -3.40625 L 46.859375 -6.953125 C 42.898438 -1.472656 37.128906 1.265625 29.546875 1.265625 C 21.972656 1.265625 15.890625 -0.648438 11.296875 -4.484375 C 6.710938 -8.316406 4.421875 -13.09375 4.421875 -18.8125 Z M 37.640625 -17.421875 C 43.109375 -17.421875 45.84375 -20.707031 45.84375 -27.28125 L 38.390625 -25.640625 C 34.691406 -24.796875 32.84375 -23.238281 32.84375 -20.96875 C 32.84375 -19.957031 33.257812 -19.113281 34.09375 -18.4375 C 34.9375 -17.757812 36.117188 -17.421875 37.640625 -17.421875 Z M 37.640625 -17.421875 "/></g></g><g style="fill:#917d51;fill-opacity:1;"><g transform="translate(497.816462, 322.844635)"><path style="stroke:none" d="M 32.328125 0 L 9.71875 0 C 8.789062 0 7.988281 -0.332031 7.3125 -1 C 6.644531 -1.675781 6.3125 -2.476562 6.3125 -3.40625 L 6.3125 -86.265625 C 6.3125 -87.191406 6.644531 -87.988281 7.3125 -88.65625 C 7.988281 -89.332031 8.789062 -89.671875 9.71875 -89.671875 L 32.328125 -89.671875 C 33.253906 -89.671875 34.050781 -89.332031 34.71875 -88.65625 C 35.394531 -87.988281 35.734375 -87.191406 35.734375 -86.265625 L 35.734375 -3.40625 C 35.734375 -2.476562 35.394531 -1.675781 34.71875 -1 C 34.050781 -0.332031 33.253906 0 32.328125 0 Z M 32.328125 0 "/></g></g><g style="fill:#917d51;fill-opacity:1;"><g transform="translate(539.240501, 322.844635)"><path style="stroke:none" d=""/></g></g><g style="fill:#917d51;fill-opacity:1;"><g transform="translate(575.233953, 322.844635)"><path style="stroke:none" d="M 63.65625 -88.40625 L 88.40625 -88.40625 C 89.332031 -88.40625 90.128906 -88.066406 90.796875 -87.390625 C 91.472656 -86.722656 91.8125 -85.925781 91.8125 -85 L 91.8125 -3.40625 C 91.8125 -2.476562 91.472656 -1.675781 90.796875 -1 C 90.128906 -0.332031 89.332031 0 88.40625 0 L 63.65625 0 C 62.726562 0 61.925781 -0.332031 61.25 -1 C 60.582031 -1.675781 60.25 -2.476562 60.25 -3.40625 L 60.25 -30.6875 L 39.78125 -30.6875 L 39.78125 -3.40625 C 39.78125 -2.476562 39.441406 -1.675781 38.765625 -1 C 38.097656 -0.332031 37.300781 0 36.375 0 L 11.625 0 C 10.695312 0 9.894531 -0.3125 9.21875 -0.9375 C 8.539062 -1.570312 8.203125 -2.394531 8.203125 -3.40625 L 8.203125 -85 C 8.203125 -85.925781 8.539062 -86.722656 9.21875 -87.390625 C 9.894531 -88.066406 10.695312 -88.40625 11.625 -88.40625 L 36.375 -88.40625 C 37.300781 -88.40625 38.097656 -88.066406 38.765625 -87.390625 C 39.441406 -86.722656 39.78125 -85.925781 39.78125 -85 L 39.78125 -58.46875 L 60.25 -58.46875 L 60.25 -85 C 60.25 -85.925781 60.582031 -86.722656 61.25 -87.390625 C 61.925781 -88.066406 62.726562 -88.40625 63.65625 -88.40625 Z M 63.65625 -88.40625 "/></g></g><g style="fill:#917d51;fill-opacity:1;"><g transform="translate(674.626387, 322.844635)"><path style="stroke:none" d="M 4.421875 -28.546875 L 4.421875 -37.125 C 4.421875 -46.726562 7.828125 -54.097656 14.640625 -59.234375 C 21.460938 -64.367188 30.265625 -66.9375 41.046875 -66.9375 C 51.828125 -66.9375 60.625 -64.367188 67.4375 -59.234375 C 74.257812 -54.097656 77.671875 -46.726562 77.671875 -37.125 L 77.671875 -28.546875 C 77.671875 -18.859375 74.382812 -11.46875 67.8125 -6.375 C 61.25 -1.28125 52.328125 1.265625 41.046875 1.265625 C 29.765625 1.265625 20.835938 -1.28125 14.265625 -6.375 C 7.703125 -11.46875 4.421875 -18.859375 4.421875 -28.546875 Z M 46.734375 -27.53125 L 46.734375 -38.140625 C 46.734375 -41.335938 46.3125 -43.566406 45.46875 -44.828125 C 44.625 -46.097656 43.148438 -46.734375 41.046875 -46.734375 C 38.941406 -46.734375 37.46875 -46.097656 36.625 -44.828125 C 35.78125 -43.566406 35.359375 -41.335938 35.359375 -38.140625 L 35.359375 -27.53125 C 35.359375 -24.164062 35.78125 -21.890625 36.625 -20.703125 C 37.46875 -19.523438 38.941406 -18.9375 41.046875 -18.9375 C 43.148438 -18.9375 44.625 -19.566406 45.46875 -20.828125 C 46.3125 -22.097656 46.734375 -24.332031 46.734375 -27.53125 Z M 46.734375 -27.53125 "/></g></g><g style="fill:#917d51;fill-opacity:1;"><g transform="translate(756.085243, 322.844635)"><path style="stroke:none" d="M 79.953125 -44.328125 C 78.597656 -44.328125 77.4375 -43.820312 76.46875 -42.8125 C 75.5 -41.800781 75.015625 -40.285156 75.015625 -38.265625 L 75.015625 -3.40625 C 75.015625 -2.476562 74.675781 -1.675781 74 -1 C 73.332031 -0.332031 72.535156 0 71.609375 0 L 49.375 0 C 48.457031 0 47.660156 -0.332031 46.984375 -1 C 46.304688 -1.675781 45.96875 -2.476562 45.96875 -3.40625 L 45.96875 -37.390625 C 45.96875 -42.015625 44.285156 -44.328125 40.921875 -44.328125 C 39.484375 -44.328125 38.28125 -43.800781 37.3125 -42.75 C 36.351562 -41.695312 35.875 -40.242188 35.875 -38.390625 L 35.875 -3.40625 C 35.875 -2.476562 35.535156 -1.675781 34.859375 -1 C 34.179688 -0.332031 33.378906 0 32.453125 0 L 9.71875 0 C 8.789062 0 7.988281 -0.332031 7.3125 -1 C 6.644531 -1.675781 6.3125 -2.476562 6.3125 -3.40625 L 6.3125 -62.265625 C 6.3125 -63.191406 6.644531 -63.988281 7.3125 -64.65625 C 7.988281 -65.332031 8.789062 -65.671875 9.71875 -65.671875 L 30.5625 -65.671875 C 31.488281 -65.671875 32.285156 -65.332031 32.953125 -64.65625 C 33.628906 -63.988281 33.96875 -63.191406 33.96875 -62.265625 L 33.96875 -58.09375 C 35.65625 -60.28125 38.054688 -62.257812 41.171875 -64.03125 C 44.617188 -65.96875 48.492188 -66.9375 52.796875 -66.9375 C 62.054688 -66.9375 68.285156 -63.484375 71.484375 -56.578125 C 73.503906 -59.523438 76.28125 -61.988281 79.8125 -63.96875 C 83.351562 -65.945312 87.019531 -66.9375 90.8125 -66.9375 C 97.625 -66.9375 103.195312 -64.535156 107.53125 -59.734375 C 111.875 -54.941406 114.046875 -47.785156 114.046875 -38.265625 L 114.046875 -3.40625 C 114.046875 -2.476562 113.707031 -1.675781 113.03125 -1 C 112.363281 -0.332031 111.566406 0 110.640625 0 L 88.40625 0 C 87.476562 0 86.675781 -0.332031 86 -1 C 85.332031 -1.675781 85 -2.476562 85 -3.40625 L 85 -37.390625 C 85 -42.015625 83.316406 -44.328125 79.953125 -44.328125 Z M 79.953125 -44.328125 "/></g></g><g style="fill:#917d51;fill-opacity:1;"><g transform="translate(875.179367, 322.844635)"><path style="stroke:none" d="M 73 -25.390625 L 35.359375 -25.390625 L 35.359375 -24.75 C 35.359375 -19.613281 37 -17.046875 40.28125 -17.046875 C 41.207031 -17.046875 42.34375 -17.71875 43.6875 -19.0625 C 45.039062 -20.414062 46.519531 -21.09375 48.125 -21.09375 L 71.984375 -21.09375 C 73.835938 -21.09375 74.765625 -20.164062 74.765625 -18.3125 C 74.765625 -14.1875 71.671875 -9.890625 65.484375 -5.421875 C 59.296875 -0.960938 50.914062 1.265625 40.34375 1.265625 C 29.78125 1.265625 21.148438 -1.488281 14.453125 -7 C 7.765625 -12.519531 4.421875 -20.125 4.421875 -29.8125 L 4.421875 -35.875 C 4.421875 -45.050781 7.828125 -52.519531 14.640625 -58.28125 C 21.460938 -64.050781 30.410156 -66.9375 41.484375 -66.9375 C 52.554688 -66.9375 61.144531 -63.691406 67.25 -57.203125 C 73.351562 -50.722656 76.40625 -42.515625 76.40625 -32.578125 L 76.40625 -28.796875 C 76.40625 -27.867188 76.066406 -27.066406 75.390625 -26.390625 C 74.722656 -25.722656 73.925781 -25.390625 73 -25.390625 Z M 45.46875 -41.671875 C 45.46875 -46.722656 43.78125 -49.25 40.40625 -49.25 C 37.039062 -49.25 35.359375 -46.722656 35.359375 -41.671875 L 35.359375 -41.171875 L 45.46875 -41.171875 Z M 45.46875 -41.671875 "/></g></g><g style="fill:#917d51;fill-opacity:1;"><g transform="translate(955.375346, 322.844635)"><path style="stroke:none" d="M 41.296875 -18.1875 C 41.296875 -19.03125 41.085938 -19.703125 40.671875 -20.203125 C 39.578125 -21.554688 35.535156 -22.882812 28.546875 -24.1875 C 21.554688 -25.488281 15.890625 -27.800781 11.546875 -31.125 C 7.210938 -34.457031 5.046875 -39.113281 5.046875 -45.09375 C 5.046875 -51.070312 7.910156 -56.207031 13.640625 -60.5 C 19.367188 -64.789062 27.09375 -66.9375 36.8125 -66.9375 C 46.539062 -66.9375 54.519531 -64.914062 60.75 -60.875 C 66.976562 -56.832031 70.09375 -52.75 70.09375 -48.625 C 70.09375 -47.695312 69.816406 -46.894531 69.265625 -46.21875 C 68.722656 -45.550781 68.070312 -45.21875 67.3125 -45.21875 L 46.09375 -45.21875 C 44.832031 -45.21875 43.273438 -45.890625 41.421875 -47.234375 C 39.566406 -48.578125 38.175781 -49.25 37.25 -49.25 C 35.320312 -49.25 34.359375 -48.578125 34.359375 -47.234375 C 34.359375 -46.390625 34.566406 -45.71875 34.984375 -45.21875 C 36.078125 -43.945312 40.664062 -42.722656 48.75 -41.546875 C 56.832031 -40.367188 62.875 -37.78125 66.875 -33.78125 C 70.875 -29.78125 72.875 -25.335938 72.875 -20.453125 C 72.875 -13.640625 69.800781 -8.296875 63.65625 -4.421875 C 57.507812 -0.546875 48.796875 1.390625 37.515625 1.390625 C 31.535156 1.390625 26.226562 0.71875 21.59375 -0.625 C 16.96875 -1.976562 13.429688 -3.664062 10.984375 -5.6875 C 6.179688 -9.644531 3.78125 -13.347656 3.78125 -16.796875 C 3.78125 -17.722656 4.078125 -18.519531 4.671875 -19.1875 C 5.265625 -19.863281 5.976562 -20.203125 6.8125 -20.203125 L 28.796875 -20.203125 C 29.972656 -20.203125 31.507812 -19.550781 33.40625 -18.25 C 35.300781 -16.945312 37.085938 -16.296875 38.765625 -16.296875 C 40.453125 -16.296875 41.296875 -16.925781 41.296875 -18.1875 Z M 41.296875 -18.1875 "/></g></g></g></svg>